<svg id="레이어_1" data-name="레이어 1" xmlns="http://www.w3.org/2000/svg" xmlns:xlink="http://www.w3.org/1999/xlink" viewBox="0 0 247.96 156.03"><defs><style>.cls-1{fill:url(#무제_그라디언트_2);}</style><linearGradient id="무제_그라디언트_2" x1="2.3" y1="841.34" x2="2.3" y2="839.61" gradientTransform="matrix(143.32, 0, 0, -90.18, -142.18, 75932.85)" gradientUnits="userSpaceOnUse"><stop offset="0" stop-color="#62c5e1"/><stop offset="1" stop-color="#e37fa2"/><stop offset="1" stop-color="#73171a"/></linearGradient></defs><title>logo3</title><path id="logo" class="cls-1" d="M64,180.62V59.71h73.6s25,4.71,36,14.8a140.51,140.51,0,0,0,0-14.8s64.77-.1,72.54,0S313,72.36,312,133.41s-41.61,78.09-54.39,79.16c-12.08,2.46-79.66,2.16-79.66,2.16s20.18-11.42,27.79-27.74c10.86.25,21.2.28,30.21,0,7.47-.24,13.79-.7,18.43-3.29,9.57-5.36,26.82-16.23,28.18-48.33s-26.27-46.68-39.88-47.91-40.72,0-40.72,0,.92,57.64,0,63.7-6.21,26.24-16.67,36.46S161.71,212,139.61,214.56s-75.55,0-75.55,0L93.38,187s32.7,1.1,40.24,0,39.91-8.57,40-49.1-33.72-50.24-40-50.43-40.24,0-40.24,0v68.23Z" transform="translate(-64.04 -59.67)"/></svg>