<?xml version="1.0" encoding="UTF-8" standalone="no"?>
<svg
   xmlns:dc="http://purl.org/dc/elements/1.1/"
   xmlns:cc="http://creativecommons.org/ns#"
   xmlns:rdf="http://www.w3.org/1999/02/22-rdf-syntax-ns#"
   xmlns:svg="http://www.w3.org/2000/svg"
   xmlns="http://www.w3.org/2000/svg"
   xmlns:sodipodi="http://sodipodi.sourceforge.net/DTD/sodipodi-0.dtd"
   xmlns:inkscape="http://www.inkscape.org/namespaces/inkscape"
   version="1.1"
   id="svg933"
   width="1043.1338"
   height="1316.0602"
   viewBox="0 0 1043.1337 1316.0602"
   sodipodi:docname="OTP.svg"
   inkscape:version="1.0.1 (3bc2e813f5, 2020-09-07)">
  <metadata
     id="metadata939">
    <rdf:RDF>
      <cc:Work
         rdf:about="">
        <dc:format>image/svg+xml</dc:format>
        <dc:type
           rdf:resource="http://purl.org/dc/dcmitype/StillImage" />
        <dc:title></dc:title>
      </cc:Work>
    </rdf:RDF>
  </metadata>
  <defs
     id="defs937">
    <rect
       x="1140.5015"
       y="-38.805569"
       width="1240.4553"
       height="324.68292"
       id="rect919" />
  </defs>
  <sodipodi:namedview
     pagecolor="#ffffff"
     bordercolor="#666666"
     borderopacity="1"
     objecttolerance="10"
     gridtolerance="10"
     guidetolerance="10"
     inkscape:pageopacity="0"
     inkscape:pageshadow="2"
     inkscape:window-width="1920"
     inkscape:window-height="1001"
     id="namedview935"
     showgrid="false"
     inkscape:zoom="0.24023438"
     inkscape:cx="322.77423"
     inkscape:cy="1311.9759"
     inkscape:window-x="-9"
     inkscape:window-y="-9"
     inkscape:window-maximized="1"
     inkscape:current-layer="g941"
     inkscape:document-rotation="0" />
  <g
     inkscape:groupmode="layer"
     inkscape:label="Image"
     id="g941"
     transform="translate(-2801.0895,1179.6491)">
    <g
       id="g1023">
      <g
         id="surface1"
         transform="matrix(1.7811409,0,0,1.7026035,2801.0895,-1180.394)">
        <path
           d="M 465.82422,492.99609 256.42969,284.58594 c 10.78515,-29.25 13.33984,-62.54297 -3.84766,-99.02735 C 232.19922,142.29297 190.69922,110.51953 143.01562,106.84375 70.054688,101.05078 6.210938,155.5 0.414062,228.46094 -0.0390625,234.20312 -0.121094,239.96875 0.171875,245.72266 2.550781,293.43359 33.542969,335.16016 76,357.05859 c 37.5,19.33985 71.19922,16.83203 100.95703,6.17578 l 8.41797,8.33204 c 14.72656,14.58593 38.47266,14.52734 53.125,-0.12891 l 26.5,26.5 v 53 l 26.5,26.5 h 53 l 26.5,26.5 v 53 l 15.76953,15.50391 c 14.83984,14.58984 38.66016,14.52343 53.41797,-0.15625 l 25.625,-25.48438 c 14.85937,-14.78125 14.92578,-38.80859 0.14453,-53.66797 -0.043,-0.043 -0.0898,-0.0898 -0.13281,-0.13672 z M 92.753906,238.9375 c -21.953125,0 -39.75,-17.79688 -39.75,-39.75 0,-21.94922 17.796875,-39.74609 39.75,-39.74609 21.953124,0 39.750004,17.79687 39.750004,39.74609 0,21.95312 -17.79688,39.75 -39.750004,39.75 z m 0,0"
           style="fill:#dee1c7;fill-opacity:1;fill-rule:nonzero;stroke:none"
           id="path942" />
        <path
           d="M 132.50391,106.4375 C 59.523438,106.4375 0.285156,165.44922 0.00390625,238.42578 -0.1875,289.06641 31.855469,334.72656 77.042969,357.58984 c 37.082031,18.76172 70.433591,16.20313 99.917971,5.64453 l 8.41406,8.33204 c 14.72656,14.58593 38.47266,14.52734 53.12891,-0.12891 l 26.5,26.5 v 53 l 26.49609,26.5 h 53.00391 L 371,503.9375 v 53 h 0.004 l 0.14062,0.14062 0.008,0.004 0.0117,0.0117 0.0117,0.0156 0.0391,0.0391 0.0117,0.008 0.10547,0.10547 0.0352,0.0312 v 0.004 l 0.0117,0.008 0.29687,0.29687 0.0625,0.0586 0.0156,0.0195 c 0.125,0.11718 0.25781,0.25 0.40234,0.39453 l 0.0781,0.0781 0.008,0.004 0.008,0.0117 0.0234,0.0195 0.0742,0.0742 c 0.0664,0.0664 0.13671,0.13281 0.20703,0.20312 h 0.004 l 0.0234,0.0274 0.0391,0.0391 0.0469,0.043 0.0117,0.0156 c 0.0273,0.0274 0.0586,0.0547 0.0859,0.082 l 0.0586,0.0586 0.043,0.0391 0.0117,0.0156 0.0117,0.008 0.043,0.043 c 0.0742,0.0742 0.14844,0.14453 0.22657,0.22265 l 0.0781,0.0781 0.043,0.0391 0.23047,0.23047 0.10547,0.10156 0.0508,0.0508 0.043,0.0391 0.0937,0.0937 c 0.0781,0.0781 0.16015,0.15625 0.24218,0.23828 l 0.1211,0.11718 0.004,0.008 0.19141,0.1875 0.15234,0.14843 c 0.0352,0.0352 0.0742,0.0703 0.10938,0.10938 l 0.39844,0.39453 0.11328,0.10938 0.65625,0.64453 c 0.0351,0.0351 0.0703,0.0664 0.10547,0.10156 l 0.0898,0.0898 c 0.0508,0.0508 0.10156,0.0977 0.14844,0.14453 l 0.12109,0.1211 0.125,0.12109 c 0.10156,0.0977 0.20313,0.19922 0.30469,0.29688 l 0.22656,0.22656 0.0312,0.0273 0.0781,0.0781 0.0976,0.0937 0.1836,0.18359 0.57422,0.5625 0.0508,0.0508 0.0781,0.0742 0.0391,0.0391 0.0195,0.0234 0.0234,0.0195 0.1211,0.11719 0.0117,0.0156 0.14062,0.14062 c 0.0273,0.0273 0.0547,0.0508 0.082,0.0781 l 0.23438,0.23437 0.0625,0.0586 0.0156,0.0156 0.0547,0.0508 0.0117,0.0156 0.0234,0.0234 0.0391,0.0352 0.20703,0.20703 0.0586,0.0547 c 0.0274,0.0312 0.0586,0.0586 0.0899,0.0898 l 0.0312,0.0312 c 0.23047,0.22656 0.46093,0.45313 0.6914,0.67969 l 0.0781,0.0742 0.0273,0.0273 0.27735,0.27344 c 0.0391,0.0391 0.082,0.0781 0.12109,0.11719 v 0.004 l 0.0742,0.0703 0.0273,0.0273 0.21094,0.20703 0.10156,0.10156 c 0.0937,0.0937 0.1875,0.1836 0.28125,0.27344 l 0.0937,0.0937 c 0.0547,0.0508 0.10547,0.10547 0.15625,0.15625 l 0.0274,0.0234 c 0.0273,0.0312 0.0586,0.0586 0.0898,0.0898 l 0.0273,0.0274 0.008,0.004 0.21093,0.21094 c 0.0547,0.0547 0.11328,0.10937 0.16797,0.16406 l 0.1875,0.1875 0.0156,0.0117 0.0586,0.0586 c 0.0977,0.0937 0.19141,0.1875 0.28516,0.28125 l 0.0156,0.0117 0.0312,0.0352 0.0391,0.0391 0.0117,0.008 0.12891,0.12891 c 0.14453,0.14063 0.28516,0.28125 0.42187,0.41797 l 0.13282,0.12891 c 0.0351,0.0312 0.0664,0.0625 0.0976,0.0937 l 0.28125,0.27734 0.14844,0.14844 0.13672,0.13281 0.17969,0.17969 0.0508,0.0469 0.0234,0.0274 0.0391,0.0391 0.0195,0.0156 0.125,0.125 0.0352,0.0312 0.19531,0.19532 0.0976,0.0937 v 0.004 l 0.0274,0.0234 0.0117,0.0117 0.0234,0.0273 h 0.004 l 0.0391,0.0391 0.0703,0.0664 v 0.004 l 0.0742,0.0742 0.0625,0.0586 0.12891,0.12891 0.0312,0.0273 0.0508,0.0508 0.10938,0.10547 h 0.004 l 0.0703,0.0703 0.28125,0.27735 0.004,0.008 0.043,0.0391 0.13672,0.13672 0.0156,0.0117 0.19532,0.19531 0.0273,0.0234 0.14453,0.14453 0.0508,0.0469 0.0234,0.0273 0.0273,0.0234 0.0352,0.0351 0.004,0.008 0.0937,0.0898 0.0937,0.0937 0.0547,0.0508 0.0117,0.0117 v 0.004 l 0.0156,0.0156 0.0117,0.008 0.004,0.008 0.0195,0.0195 0.0195,0.0156 0.008,0.008 0.008,0.0117 0.004,0.004 0.0156,0.0117 0.008,0.008 c 14.72266,14.65625 38.51954,14.66016 53.25,0.008 l 25.79297,-25.65234 0.22657,-0.22656 0.0156,-0.0195 0.0312,-0.0273 0.0156,-0.0195 0.0742,-0.0742 0.0156,-0.0195 0.0273,-0.0273 0.0195,-0.0156 0.0274,-0.0312 0.0547,-0.0547 0.004,-0.008 0.0469,-0.043 v -0.004 c 0.0312,-0.0312 0.0586,-0.0625 0.0898,-0.0937 l 0.0586,-0.0586 0.0274,-0.0312 0.0195,-0.0195 0.0273,-0.0312 0.043,-0.043 0.0156,-0.0195 0.0312,-0.0312 0.0117,-0.0156 0.0469,-0.0469 0.0312,-0.0352 0.0117,-0.0117 0.0352,-0.0391 0.008,-0.008 0.0391,-0.043 0.004,-0.004 c 0.0586,-0.0625 0.11718,-0.12891 0.17578,-0.19141 l 0.004,-0.004 0.0391,-0.043 0.008,-0.008 0.0391,-0.043 0.004,-0.004 0.0391,-0.043 0.008,-0.008 0.0352,-0.0391 0.008,-0.008 0.0312,-0.0391 0.0508,-0.0508 0.004,-0.008 0.0391,-0.043 0.004,-0.004 c 0.0859,-0.0977 0.17187,-0.19531 0.25781,-0.29297 l 0.008,-0.008 0.0352,-0.043 0.004,-0.004 0.0391,-0.043 0.008,-0.004 0.0352,-0.0469 0.004,-0.004 0.0391,-0.043 0.004,-0.004 0.0391,-0.0469 0.004,-0.004 0.0391,-0.0469 h 0.004 c 0.0977,-0.11719 0.19922,-0.23438 0.29297,-0.34766 l 0.004,-0.004 0.0391,-0.0469 0.004,-0.004 0.0352,-0.043 0.008,-0.008 0.0352,-0.043 0.004,-0.008 c 0.10938,-0.13281 0.22266,-0.26563 0.32813,-0.39844 0.0273,-0.0351 0.0547,-0.0664 0.082,-0.10156 l 0.0391,-0.0508 0.0391,-0.0469 0.004,-0.008 0.0391,-0.0469 c 0.14844,-0.1875 0.29297,-0.375 0.4375,-0.5625 v -0.004 c 2.1875,-2.86719 3.94922,-6.03125 5.23438,-9.39844 v -0.004 l 0.0234,-0.0547 v -0.004 l 0.0195,-0.0508 0.004,-0.0117 0.0195,-0.0469 v -0.008 l 0.0195,-0.0469 0.004,-0.0117 0.0195,-0.0508 v -0.008 l 0.0195,-0.0469 0.004,-0.008 c 2.54297,-6.86328 -0.96094,-14.48828 -7.82422,-17.02734 -6.86328,-2.54297 -14.48437,0.96093 -17.02734,7.82421 -0.57422,1.54688 -1.48438,2.95313 -2.66406,4.11329 l -25.78907,25.65234 c -2.10546,2.10156 -4.96093,3.28125 -7.93359,3.27344 -3.03125,-0.008 -5.92969,-1.23047 -8.05469,-3.39063 l -7.84375,-7.71484 v -41.89453 c 0,-7.02735 -2.79297,-13.76953 -7.76172,-18.73828 l -26.5,-26.5 c -4.96875,-4.96875 -11.71093,-7.75782 -18.73828,-7.75782 H 302.477 l -10.97657,-10.97656 v -42.02344 c 0,-7.03125 -2.79297,-13.76953 -7.76172,-18.73828 l -26.5,-26.5 c -10.35156,-10.34765 -27.1289,-10.34765 -37.47656,0 l -7.85547,7.85156 -16.30468,-16.14453 c -7.2461,-7.18359 -17.97657,-9.5625 -27.57813,-6.12109 -19.03906,6.81641 -36.03906,8.29687 -53.33594,4.88281 -45.715274,-9.02526 -82.87543,-46.75964 -87.621524,-93.1112 -6.074218,-58.28906 36.253906,-110.46875 94.546874,-116.54297 3.61719,-0.3789 7.24609,-0.57031 10.88281,-0.57422 7.31641,0.008 13.25391,-5.91796 13.26172,-13.23437 0.008,-7.31641 -5.91797,-13.25391 -13.23437,-13.26172 -0.004,0 -0.0117,0 -0.0195,0 z m 0,0"
           style="fill:#c7c5a1;fill-opacity:1;fill-rule:nonzero;stroke:none"
           id="path944" />
        <path
           d="m 210.91797,272.23437 c -3.57422,-0.0156 -7.01563,1.3711 -9.58203,3.86719 -0.10157,0.10547 -0.20703,0.21094 -0.3086,0.3125 l -31.04687,31.04688 c -7.02344,7.03906 -16.5586,10.98828 -26.5,10.97656 h -0.78516 l -0.0312,-0.004 h -0.13672 l -0.0312,-0.004 h -0.10937 l -0.0273,-0.004 h -0.0781 l -0.0352,-0.004 h -0.0781 l -0.0352,-0.004 h -0.0547 l -0.0195,-0.004 H 142 l -0.0352,-0.004 h -0.0547 l -0.0234,-0.004 h -0.0859 l -0.0273,-0.004 h -0.0547 l -0.0273,-0.004 h -0.0586 l -0.0273,-0.004 h -0.0547 l -0.0273,-0.004 h -0.0273 l -0.0312,-0.004 h -0.0234 l -0.0312,-0.004 h -0.0586 l -0.0234,-0.004 h -0.0312 l -0.0234,-0.004 -0.0312,-0.004 h -0.0273 l -0.0273,-0.004 h -0.0273 l -0.0273,-0.004 h -0.0312 l -0.0234,-0.004 h -0.0273 l -0.0312,-0.004 h -0.0273 l -0.0273,-0.004 h -0.0273 l -0.0312,-0.004 h -0.0234 l -0.0312,-0.004 h -0.0234 l -0.0312,-0.004 h -0.0273 l -0.0547,-0.008 h -0.0312 l -0.0273,-0.004 h -0.0273 l -0.0273,-0.004 h -0.0273 l -0.0273,-0.004 h -0.0273 l -0.0273,-0.004 h -0.0273 l -0.0312,-0.004 h -0.0234 l -0.0312,-0.004 -0.0273,-0.004 h -0.0312 l -0.0234,-0.004 h -0.0312 l -0.0234,-0.004 -0.0312,-0.004 -0.0234,-0.004 h -0.0312 l -0.0273,-0.004 -0.0312,-0.004 h -0.0234 l -0.0312,-0.004 -0.0234,-0.004 h -0.0312 l -0.082,-0.0117 h -0.0312 l -0.0195,-0.004 -0.0352,-0.004 -0.0234,-0.004 h -0.0312 l -0.0273,-0.004 -0.0234,-0.004 h -0.0273 l -0.0352,-0.004 h -0.0195 l -0.0312,-0.004 -0.0273,-0.004 -0.0312,-0.004 h -0.0234 l -0.0312,-0.004 -0.0234,-0.004 -0.0352,-0.004 h -0.0195 l -0.0312,-0.008 h -0.0273 l -0.0312,-0.004 -0.0234,-0.004 -0.0312,-0.004 -0.0234,-0.004 -0.0312,-0.004 -0.0234,-0.004 -0.0312,-0.004 h -0.0234 l -0.0352,-0.004 -0.0234,-0.004 -0.0547,-0.008 -0.0312,-0.004 -0.0234,-0.004 -0.0312,-0.004 h -0.0273 l -0.0312,-0.004 -0.0234,-0.004 -0.0312,-0.004 -0.0234,-0.004 -0.0352,-0.004 -0.0195,-0.004 -0.0352,-0.004 -0.0195,-0.004 -0.0352,-0.004 h -0.0195 l -0.0352,-0.004 -0.0234,-0.004 -0.0352,-0.004 -0.0195,-0.004 -0.0352,-0.004 -0.0195,-0.004 -0.0352,-0.004 -0.0195,-0.004 -0.0352,-0.004 -0.0234,-0.004 -0.0352,-0.004 -0.0195,-0.004 -0.0312,-0.004 -0.0273,-0.004 -0.0312,-0.004 -0.082,-0.0117 -0.0312,-0.004 h -0.0117 l -0.043,-0.008 -0.0156,-0.004 -0.0391,-0.004 -0.0195,-0.004 -0.0312,-0.004 -0.0273,-0.004 -0.0312,-0.004 -0.0195,-0.004 -0.0352,-0.004 -0.0547,-0.008 -0.0312,-0.004 -0.0234,-0.004 -0.0273,-0.004 -0.0859,-0.0156 h -0.0156 l -0.0937,-0.0156 -0.004,-0.004 c -0.0664,-0.008 -0.13281,-0.0195 -0.19921,-0.0312 l -0.0156,-0.004 -0.20703,-0.0312 -0.0156,-0.004 -0.10156,-0.0195 h -0.008 l -0.0977,-0.0195 h -0.0117 l -0.10156,-0.0195 h -0.0117 l -0.043,-0.0117 h -0.008 l -0.043,-0.008 -0.0156,-0.004 -0.0391,-0.008 h -0.0156 l -0.0352,-0.008 -0.0195,-0.004 -0.0352,-0.004 -0.0195,-0.004 -0.0312,-0.008 -0.0273,-0.004 -0.0352,-0.008 -0.0156,-0.004 -0.0391,-0.008 h -0.0195 l -0.0352,-0.008 -0.0195,-0.004 -0.0352,-0.008 -0.0195,-0.004 -0.0352,-0.008 -0.0195,-0.004 -0.0352,-0.004 -0.0195,-0.004 -0.0352,-0.008 -0.0195,-0.004 -0.0352,-0.008 -0.0234,-0.004 -0.0352,-0.008 -0.0156,-0.004 -0.0391,-0.008 -0.0156,-0.004 -0.0391,-0.008 -0.0156,-0.004 -0.0352,-0.008 -0.0234,-0.004 -0.0352,-0.008 -0.0156,-0.004 -0.0391,-0.008 -0.0156,-0.004 -0.0352,-0.008 -0.0195,-0.004 -0.0352,-0.008 -0.0234,-0.004 -0.0352,-0.008 -0.0156,-0.004 -0.0391,-0.008 -0.0156,-0.004 -0.0391,-0.008 -0.0156,-0.004 -0.0352,-0.008 -0.0586,-0.0117 -0.0156,-0.004 -0.0391,-0.008 -0.0156,-0.004 -0.0391,-0.008 -0.0156,-0.004 -0.0391,-0.0117 -0.0195,-0.004 -0.0391,-0.004 -0.0156,-0.004 -0.0352,-0.008 -0.0195,-0.004 -0.0352,-0.008 -0.0195,-0.004 -0.0352,-0.008 -0.0195,-0.004 -0.0352,-0.0117 -0.0156,-0.004 -0.0586,-0.0117 -0.0352,-0.008 -0.0195,-0.004 -0.0312,-0.008 -0.0273,-0.008 -0.0312,-0.008 -0.0195,-0.004 -0.0352,-0.0117 -0.0195,-0.004 -0.0352,-0.008 -0.0195,-0.004 -0.0352,-0.008 -0.0234,-0.008 -0.0312,-0.008 -0.0195,-0.004 -0.0352,-0.008 -0.0195,-0.004 -0.0352,-0.008 -0.0195,-0.004 -0.0352,-0.0117 -0.0195,-0.004 -0.0352,-0.008 -0.0156,-0.004 -0.0391,-0.0117 -0.0156,-0.004 -0.0391,-0.008 -0.0156,-0.004 -0.0352,-0.0117 -0.0195,-0.004 -0.0352,-0.0117 -0.0195,-0.004 -0.0312,-0.008 -0.0234,-0.008 -0.0312,-0.008 -0.0234,-0.004 -0.0312,-0.008 -0.0234,-0.008 -0.0352,-0.008 -0.0156,-0.004 -0.0391,-0.0117 -0.0195,-0.004 -0.0312,-0.008 -0.0234,-0.008 -0.0312,-0.008 -0.0234,-0.008 -0.0312,-0.008 -0.0195,-0.004 -0.0352,-0.0117 -0.0195,-0.004 -0.0352,-0.0117 -0.0195,-0.004 -0.0352,-0.0117 -0.0195,-0.004 -0.0352,-0.0117 -0.0156,-0.004 -0.0391,-0.0117 -0.0195,-0.004 -0.0352,-0.0117 -0.0156,-0.004 -0.0391,-0.008 -0.0195,-0.008 -0.0312,-0.008 -0.0195,-0.008 -0.0391,-0.0117 -0.0156,-0.004 -0.0391,-0.008 -0.0156,-0.004 -0.0352,-0.0117 -0.0195,-0.008 -0.0352,-0.008 -0.0156,-0.004 -0.0391,-0.0156 h -0.0117 l -0.043,-0.0156 -0.0117,-0.004 -0.0391,-0.0117 -0.0195,-0.004 -0.0352,-0.0117 -0.0156,-0.004 -0.0391,-0.0156 -0.0117,-0.004 -0.043,-0.0117 -0.0117,-0.004 -0.043,-0.0117 -0.0117,-0.004 -0.043,-0.0156 h -0.008 l -0.043,-0.0156 -0.0117,-0.004 -0.043,-0.0117 -0.008,-0.004 -0.0469,-0.0156 -0.008,-0.004 -0.0469,-0.0117 v -0.004 l -0.0508,-0.0156 h -0.004 l -0.0508,-0.0156 h -0.004 l -0.0508,-0.0156 -0.004,-0.004 c -0.56641,-0.17969 -1.12891,-0.375 -1.69141,-0.58594 l -0.008,-0.004 -0.0469,-0.0156 -0.004,-0.004 -0.15235,-0.0586 h -0.004 l -0.10938,-0.0391 h -0.004 l -0.0469,-0.0195 h -0.004 l -0.0469,-0.0195 -0.008,-0.004 -0.0469,-0.0156 -0.004,-0.004 -0.0469,-0.0195 h -0.008 l -0.0469,-0.0195 -0.004,-0.004 -0.043,-0.0156 -0.0117,-0.004 -0.043,-0.0156 -0.008,-0.004 -0.043,-0.0195 -0.0117,-0.004 -0.043,-0.0156 -0.008,-0.004 -0.043,-0.0156 -0.0117,-0.004 -0.043,-0.0195 -0.008,-0.004 -0.043,-0.0156 -0.008,-0.004 -0.0469,-0.0195 -0.008,-0.004 -0.043,-0.0156 -0.008,-0.004 -0.0469,-0.0195 -0.004,-0.004 -0.0469,-0.0156 -0.008,-0.004 -0.043,-0.0195 -0.008,-0.004 -0.043,-0.0156 -0.0117,-0.004 -0.043,-0.0195 -0.008,-0.004 -0.0469,-0.0156 -0.008,-0.004 -0.043,-0.0195 -0.008,-0.004 -0.043,-0.0156 -0.0117,-0.008 -0.043,-0.0156 -0.008,-0.004 -0.043,-0.0195 -0.008,-0.004 -0.043,-0.0195 -0.0117,-0.004 -0.0391,-0.0156 -0.0117,-0.008 -0.043,-0.0156 -0.008,-0.004 -0.043,-0.0195 -0.008,-0.004 -0.0469,-0.0195 -0.004,-0.004 -0.0469,-0.0195 -0.008,-0.004 -0.043,-0.0195 h -0.008 l -0.043,-0.0195 -0.008,-0.004 -0.043,-0.0234 h -0.008 l -0.043,-0.0195 -0.0117,-0.004 -0.043,-0.0195 -0.008,-0.004 -0.043,-0.0195 -0.008,-0.004 -0.043,-0.0195 -0.008,-0.004 -0.043,-0.0195 -0.0117,-0.004 -0.0469,-0.0234 -0.043,-0.0195 -0.008,-0.004 -0.0469,-0.0195 -0.008,-0.004 -0.043,-0.0195 -0.0117,-0.004 -0.0469,-0.0234 -0.043,-0.0195 -0.0547,-0.0274 -0.0508,-0.0234 h -0.004 l -0.20312,-0.0937 -0.004,-0.004 c -0.0664,-0.0312 -0.13672,-0.0625 -0.20312,-0.0977 h -0.004 l -0.0977,-0.0469 -0.004,-0.004 -0.0977,-0.0469 -0.004,-0.004 c -3.64454,-1.78515 -6.97657,-4.15234 -9.86329,-7.0039 -5.23046,-5.1211 -13.61718,-5.02735 -18.738278,0.20312 -5.101562,5.21875 -5.027343,13.57813 0.167969,18.70313 25.039059,24.66406 65.285159,24.51562 90.136719,-0.33594 l 31.04687,-31.04688 c 0.14063,-0.14062 0.8711,-0.88672 1.00782,-1.03125 4.90234,-5.05078 4.77734,-13.12109 -0.27735,-18.02343 -0.14062,-0.13672 -0.28125,-0.26954 -0.42968,-0.39844 -2.51563,-2.24219 -5.77344,-3.48047 -9.14454,-3.46875 z m 0,0"
           style="fill:#c7c5a1;fill-opacity:1;fill-rule:nonzero;stroke:none"
           id="path946" />
        <path
           d="M 530,0.4375 H 318 c -29.26953,0 -52.99609,23.730469 -53,53 0,0 0,0.0039 0,0.0039 v 105.9961 c 0,29.27344 23.73047,53 53,53 h 212 c 29.27344,0 53,-23.72656 53,-53 V 53.441406 C 583,24.167969 559.27344,0.4375 530,0.4375 Z m -212,132.5 c -14.63281,0 -26.5,-11.86328 -26.5,-26.49609 0,-14.636722 11.86719,-26.500004 26.5,-26.500004 14.63672,0 26.5,11.863282 26.5,26.500004 0,14.63281 -11.86328,26.49609 -26.5,26.49609 z m 0,0"
           style="fill:#3ac2a1;fill-opacity:1;fill-rule:nonzero;stroke:none"
           id="path948" />
        <path
           d="m 331.25,26.9375 h 185.5 c 7.31641,0 13.25,5.933594 13.25,13.25 0,7.320312 -5.93359,13.25 -13.25,13.25 h -185.5 c -7.31641,0 -13.25,-5.929688 -13.25,-13.25 0,-7.316406 5.93359,-13.25 13.25,-13.25 z m 0,0"
           style="fill:#99decc;fill-opacity:1;fill-rule:nonzero;stroke:none"
           id="path950" />
        <path
           d="m 568.14062,28.921875 c -7.32421,0.0039 -13.25781,5.945313 -13.25,13.269531 0,1.261719 0.17969,2.519532 0.53516,3.730469 0.71875,2.441406 1.07813,4.972656 1.07422,7.519531 V 159.4375 c -0.0156,14.62891 -11.87109,26.48437 -26.5,26.5 H 331.25 c -7.31641,-0.008 -13.25391,5.91797 -13.26172,13.23828 -0.008,7.31641 5.91797,13.25391 13.23438,13.26172 0.008,0 0.0195,0 0.0273,0 H 530 c 29.27344,0 53,-23.73047 53,-53 V 52.835938 l -0.004,-0.07422 v -0.269531 l -0.004,-0.07031 v -0.183594 l -0.004,-0.07813 v -0.07422 l -0.004,-0.02344 v -0.07422 l -0.004,-0.07813 V 51.8125 l -0.004,-0.07813 v -0.0078 l -0.004,-0.06641 v -0.101562 l -0.004,-0.07813 v -0.01172 l -0.004,-0.06641 v -0.01563 l -0.004,-0.07813 v -0.0078 l -0.004,-0.07031 v -0.01563 l -0.004,-0.07031 v -0.0078 l -0.004,-0.07422 v -0.01953 l -0.004,-0.0625 v -0.01563 l -0.004,-0.07813 V 50.875 l -0.004,-0.06641 v -0.01953 l -0.004,-0.0625 v -0.01562 l -0.004,-0.07422 v -0.01953 l -0.004,-0.0625 -0.004,-0.01563 -0.004,-0.07812 v -0.01172 l -0.004,-0.06641 v -0.01953 l -0.008,-0.152343 -0.004,-0.01953 -0.004,-0.0625 v -0.01563 l -0.004,-0.07422 v -0.01172 l -0.004,-0.06641 v -0.01563 l -0.008,-0.07812 -0.004,-0.07813 v -0.01562 l -0.004,-0.06641 -0.004,-0.01172 -0.004,-0.08203 v -0.0039 l -0.004,-0.07031 -0.004,-0.01953 c -0.004,-0.05078 -0.004,-0.101562 -0.008,-0.152343 l -0.004,-0.01953 -0.004,-0.0625 v -0.01172 l -0.008,-0.07813 v -0.01562 l -0.004,-0.0625 -0.004,-0.01563 -0.004,-0.07812 -0.0117,-0.07422 v -0.01563 l -0.008,-0.06641 v -0.01172 l -0.008,-0.07813 v -0.01563 l -0.008,-0.05859 v -0.02344 l -0.0117,-0.148438 -0.004,-0.02344 -0.004,-0.05859 -0.004,-0.01563 -0.008,-0.07422 v -0.01953 l -0.008,-0.05469 v -0.02344 l -0.008,-0.07422 v -0.01172 l -0.008,-0.0625 v -0.02344 l -0.008,-0.05078 v -0.02734 l -0.008,-0.06641 -0.004,-0.02734 -0.004,-0.05078 -0.004,-0.02734 -0.008,-0.07031 v -0.01172 l -0.008,-0.0625 v -0.02344 l -0.008,-0.05469 v -0.01953 l -0.008,-0.07031 -0.004,-0.02734 -0.008,-0.04687 v -0.02734 l -0.008,-0.07031 -0.004,-0.01563 -0.004,-0.05859 -0.004,-0.02344 -0.008,-0.05859 v -0.01563 l -0.0117,-0.07031 v -0.02344 l -0.008,-0.05078 -0.004,-0.02734 -0.008,-0.07031 v -0.01563 l -0.008,-0.05859 -0.004,-0.02344 -0.008,-0.05859 v -0.01563 l -0.008,-0.07031 -0.004,-0.02734 -0.008,-0.05078 v -0.02344 l -0.0117,-0.07031 v -0.01953 l -0.008,-0.05469 -0.004,-0.02344 -0.008,-0.05078 -0.004,-0.02734 -0.008,-0.06641 -0.004,-0.02344 -0.004,-0.05078 -0.004,-0.02734 -0.0117,-0.06641 -0.004,-0.02734 -0.004,-0.04297 -0.004,-0.03125 -0.008,-0.04687 -0.004,-0.03516 -0.008,-0.05859 -0.004,-0.03125 -0.008,-0.04297 -0.004,-0.02734 -0.008,-0.06641 -0.004,-0.03125 -0.008,-0.03906 -0.004,-0.03516 -0.008,-0.04297 -0.008,-0.04687 -0.004,-0.04297 -0.008,-0.03906 -0.004,-0.03125 -0.008,-0.03906 -0.008,-0.0625 -0.008,-0.03125 -0.004,-0.03906 -0.008,-0.03516 -0.004,-0.03906 -0.008,-0.05469 -0.0156,-0.07813 -0.004,-0.03125 -0.004,-0.03516 -0.0117,-0.0625 -0.004,-0.03516 -0.008,-0.03516 -0.008,-0.03906 -0.004,-0.03125 -0.0117,-0.07031 -0.004,-0.02734 -0.004,-0.03906 -0.008,-0.03125 c -0.008,-0.05078 -0.0156,-0.09766 -0.0234,-0.144531 l -0.004,-0.02344 -0.008,-0.04297 -0.004,-0.02734 -0.0156,-0.07422 -0.0156,-0.09375 c -0.008,-0.04687 -0.0156,-0.09766 -0.0273,-0.148437 l -0.004,-0.01953 -0.008,-0.04687 v -0.01172 l -0.0195,-0.09375 -0.004,-0.01563 -0.008,-0.04687 -0.004,-0.01953 -0.0273,-0.15625 -0.004,-0.01172 -0.0312,-0.167969 c -0.0156,-0.07813 -0.0273,-0.152344 -0.043,-0.226562 l -0.004,-0.0078 -0.043,-0.226563 v -0.0039 c -0.30859,-1.539062 -0.68359,-3.050781 -1.12109,-4.539062 -1.66407,-5.636719 -6.83204,-9.507813 -12.70704,-9.511719 z m 0,0"
           style="fill:#00a687;fill-opacity:1;fill-rule:nonzero;stroke:none"
           id="path952" />
        <path
           d="M 291.5,79.9375 H 132.50391 c -29.27344,0 -53.000004,23.73047 -53.000004,53 v 26.5 c -0.01172,14.63672 11.847656,26.50781 26.480474,26.51562 14.63671,0.0117 26.50781,-11.84765 26.51562,-26.48046 0,-0.0117 0,-0.0234 0,-0.0352 v -26.5 h 159 c 14.63672,0 26.5,-11.86328 26.5,-26.49609 C 318,91.804688 306.13672,79.9375 291.5,79.9375 Z m 0,0"
           style="fill:#612e19;fill-opacity:1;fill-rule:nonzero;stroke:none"
           id="path954" />
        <path
           d="m 355.45703,79.851562 c -7.32422,0.0078 -13.25391,5.949219 -13.25,13.269532 0.004,1.507812 0.26172,3.003906 0.76563,4.425781 0.082,0.230469 0.16015,0.464844 0.23828,0.695313 v 0.0039 l 0.0351,0.109375 0.008,0.01953 0.0156,0.04297 0.008,0.03125 0.008,0.02734 0.0156,0.04688 0.008,0.01953 0.0117,0.04297 0.008,0.02734 0.0117,0.03906 0.008,0.01953 0.0156,0.05078 0.004,0.01563 0.0156,0.05469 0.004,0.01172 0.0156,0.05469 v 0.0039 l 0.0195,0.0625 0.004,0.0078 0.0195,0.0625 V 99 c 0.53516,1.83203 0.86719,3.71875 0.9961,5.62109 v 0.004 c 0.004,0.0703 0.008,0.14063 0.0156,0.21094 v 0.004 c 0.004,0.0703 0.008,0.14063 0.0117,0.21485 l 0.004,0.0703 v 0.004 l 0.004,0.13672 v 0.008 l 0.004,0.0664 v 0.008 l 0.004,0.0664 v 0.0742 l 0.004,0.0664 v 0.0859 l 0.004,0.0664 v 0.0781 l 0.004,0.0625 v 0.15625 l 0.004,0.0625 v 0.37109 c 0,14.63672 -11.86328,26.5 -26.5,26.5 h -0.29297 l -0.0664,-0.004 h -0.22265 c -0.48047,-0.0117 -0.95703,-0.0352 -1.4336,-0.0703 h -0.004 l -0.0664,-0.008 h -0.008 l -0.0508,-0.004 h -0.0274 l -0.043,-0.004 -0.0352,-0.004 h -0.004 l -0.0469,-0.004 c -0.38672,-0.0352 -0.77344,-0.0508 -1.15235,-0.0508 -7.3164,0.0117 -13.24218,5.94922 -13.23437,13.26953 0.008,6.86719 5.26562,12.59375 12.11328,13.1836 1.50781,0.1289 3.03125,0.19531 4.57422,0.19531 29.28125,-0.0117 53.00781,-23.75391 53,-53.03516 -0.004,-6.04687 -1.03906,-12.046871 -3.0625,-17.742184 -1.87891,-5.28125 -6.87891,-8.804687 -12.48047,-8.808594 z m 0,0"
           style="fill:#00a687;fill-opacity:1;fill-rule:nonzero;stroke:none"
           id="path956" />
        <path
           d="m 119.25391,106.4375 h 159 c 7.3164,0 13.24609,5.93359 13.24609,13.25 0,7.32031 -5.92969,13.25 -13.24609,13.25 h -159 c -7.32032,0 -13.25,-5.92969 -13.25,-13.25 0,-7.31641 5.92968,-13.25 13.25,-13.25 z m 0,0"
           style="fill:#451700;fill-opacity:1;fill-rule:nonzero;stroke:none"
           id="path958" />
        <path
           d="m 119.25391,106.4375 c 7.3164,0 13.25,5.93359 13.25,13.25 v 26.5 c 0,7.31641 -5.9336,13.25 -13.25,13.25 -7.32032,0 -13.25,-5.93359 -13.25,-13.25 v -26.5 c 0,-7.31641 5.92968,-13.25 13.25,-13.25 z m 0,0"
           style="fill:#451700;fill-opacity:1;fill-rule:nonzero;stroke:none"
           id="path960" />
        <path
           d="m 145.75391,132.9375 h 53 c 7.3164,0 13.25,5.93359 13.25,13.25 0,7.32031 -5.9336,13.25 -13.25,13.25 h -53 c -7.32032,0 -13.25,-5.92969 -13.25,-13.25 0,-7.31641 5.92968,-13.25 13.25,-13.25 z m 0,0"
           style="fill:#c7c5a1;fill-opacity:1;fill-rule:nonzero;stroke:none"
           id="path962" />
        <path
           d="m 132.85156,220.60547 c -3.83594,-0.008 -7.48047,1.65234 -9.99609,4.54297 -5.98438,6.94922 -14.1875,11.60937 -23.218751,13.19531 h -0.0039 l -0.06641,0.0117 c -0.15625,0.0273 -0.3125,0.0547 -0.46875,0.0781 h -0.0039 l -0.128906,0.0234 h -0.0078 l -0.0625,0.008 -0.06641,0.0117 c -0.136719,0.0195 -0.269531,0.0391 -0.40625,0.0586 l -0.0039,0.004 -0.05859,0.008 h -0.01172 l -0.05469,0.008 h -0.01563 l -0.05078,0.008 -0.01562,0.004 -0.05078,0.008 h -0.01563 l -0.05469,0.008 h -0.0078 l -0.0625,0.008 h -0.0078 c -0.08594,0.0117 -0.175781,0.0234 -0.265625,0.0352 l -0.01563,0.004 -0.05078,0.004 -0.01563,0.004 -0.04687,0.004 -0.01953,0.004 -0.05078,0.004 -0.01953,0.004 -0.04297,0.004 -0.02344,0.004 -0.04688,0.004 -0.01953,0.004 -0.04687,0.004 -0.01953,0.004 -0.05469,0.004 -0.01172,0.004 -0.05078,0.004 -0.01563,0.004 -0.06641,0.008 H 97.125 l -0.0625,0.004 -0.01172,0.004 -0.05469,0.004 -0.01563,0.004 -0.05078,0.004 -0.01563,0.004 -0.05078,0.004 h -0.01563 l -0.05078,0.008 h -0.01953 l -0.04687,0.008 h -0.01953 l -0.04688,0.004 -0.01953,0.004 -0.05469,0.004 h -0.0078 c -0.07031,0.008 -0.136719,0.0156 -0.207031,0.0195 h -0.0039 l -0.0625,0.008 h -0.0078 l -0.05859,0.004 -0.01953,0.004 -0.04687,0.004 h -0.01953 l -0.04687,0.004 -0.02344,0.004 -0.04297,0.004 h -0.01953 l -0.04688,0.004 -0.02344,0.004 -0.04297,0.004 h -0.02344 l -0.04687,0.008 h -0.01953 l -0.0625,0.004 h -0.0039 c -0.04687,0.004 -0.08984,0.008 -0.136718,0.0117 h -0.01172 l -0.05469,0.004 h -0.01953 l -0.04687,0.004 h -0.02344 l -0.04297,0.004 -0.02344,0.004 h -0.04297 l -0.02344,0.004 -0.04297,0.004 h -0.02344 l -0.04297,0.004 h -0.02344 l -0.04297,0.004 H 95.125 l -0.04297,0.004 H 95.0625 l -0.04297,0.004 h -0.04297 l -0.05078,0.004 h -0.01953 l -0.04687,0.004 h -0.06641 l -0.02734,0.004 h -0.03906 l -0.03125,0.004 h -0.03516 l -0.03125,0.004 H 94.5625 l -0.03906,0.004 H 94.4961 l -0.03906,0.004 H 94.4297 l -0.03906,0.004 h -0.07422 l -0.01953,0.004 h -0.07813 l -0.05859,0.004 h -0.08984 l -0.04297,0.004 H 93.9297 l -0.03906,0.004 h -0.09375 l -0.04297,0.004 h -0.08984 l -0.04297,0.004 H 93.4375 l -0.04297,0.004 h -1.195312 l -0.04297,-0.004 h -0.238281 l -0.02344,-0.004 h -0.125 l -0.02344,-0.004 h -0.144532 l -0.07031,-0.004 h -0.02344 l -0.04687,-0.004 h -0.07422 l -0.02344,-0.004 h -0.07422 l -0.05078,-0.004 h -0.01563 l -0.07031,-0.004 h -0.07031 l -0.02734,-0.004 h -0.04688 l -0.02734,-0.004 h -0.07031 l -0.05078,-0.004 h -0.01953 l -0.07031,-0.004 h -0.01172 l -0.05859,-0.004 h -0.02344 l -0.04687,-0.004 h -0.02734 l -0.04297,-0.004 h -0.03125 l -0.04297,-0.004 h -0.02734 l -0.05859,-0.004 -0.03125,-0.004 h -0.04688 l -0.02734,-0.004 -0.04687,-0.004 h -0.02344 l -0.04687,-0.004 -0.02344,-0.004 h -0.05078 l -0.02344,-0.004 -0.0625,-0.004 h -0.0078 l -0.07031,-0.004 h -0.01953 l -0.04687,-0.004 -0.02734,-0.004 -0.04687,-0.004 h -0.02344 l -0.04688,-0.004 -0.02344,-0.004 -0.05859,-0.004 h -0.01172 l -0.07031,-0.008 h -0.02344 l -0.04687,-0.004 -0.02344,-0.004 -0.04687,-0.004 h -0.02344 l -0.04688,-0.004 -0.02344,-0.004 -0.05469,-0.004 h -0.01563 l -0.07031,-0.008 h -0.01953 l -0.04687,-0.004 -0.03125,-0.004 -0.04297,-0.004 h -0.02344 l -0.05078,-0.004 -0.01953,-0.004 -0.0625,-0.004 -0.0078,-0.004 -0.07031,-0.004 -0.01563,-0.004 -0.05469,-0.004 -0.02344,-0.004 -0.04687,-0.004 -0.02344,-0.004 -0.05078,-0.004 h -0.01953 l -0.05078,-0.008 h -0.02344 l -0.06641,-0.008 h -0.01563 l -0.05078,-0.008 -0.03125,-0.004 -0.03906,-0.004 -0.03125,-0.004 -0.03906,-0.004 -0.03125,-0.004 -0.04297,-0.004 -0.02734,-0.004 -0.06641,-0.008 -0.02344,-0.004 -0.04297,-0.004 -0.140625,-0.0156 -0.03125,-0.004 -0.03906,-0.004 -0.03125,-0.004 -0.06641,-0.008 -0.01172,-0.004 -0.08203,-0.0117 -0.04297,-0.004 -0.02734,-0.004 -0.04297,-0.004 -0.02734,-0.004 -0.03906,-0.008 -0.03125,-0.004 -0.04297,-0.004 -0.04687,-0.008 -0.04297,-0.008 -0.02734,-0.004 -0.04297,-0.004 -0.02734,-0.004 -0.03906,-0.008 -0.03125,-0.004 -0.03906,-0.004 -0.03125,-0.004 -0.04687,-0.008 h -0.01953 l -0.0625,-0.0117 -0.03125,-0.004 -0.03906,-0.004 -0.03125,-0.008 -0.03516,-0.004 -0.03125,-0.008 -0.03906,-0.004 -0.03125,-0.004 -0.04297,-0.008 -0.02734,-0.004 -0.0625,-0.008 -0.02734,-0.008 -0.03906,-0.004 -0.03516,-0.004 -0.03516,-0.008 -0.03125,-0.004 -0.03516,-0.008 -0.03125,-0.004 -0.04297,-0.004 -0.02734,-0.008 -0.0625,-0.008 -0.03125,-0.008 -0.03516,-0.004 -0.03516,-0.008 -0.03516,-0.004 -0.03125,-0.008 -0.03516,-0.004 -0.03516,-0.008 -0.03125,-0.004 -0.03516,-0.008 -0.05859,-0.008 -0.03516,-0.008 -0.03516,-0.004 -0.03516,-0.008 -0.03125,-0.004 -0.03906,-0.008 -0.02734,-0.004 -0.03906,-0.008 -0.02344,-0.004 -0.04297,-0.008 -0.01172,-0.004 -0.08984,-0.0156 -0.02344,-0.004 -0.03906,-0.008 -0.02734,-0.008 -0.03906,-0.008 -0.03125,-0.004 -0.03516,-0.008 -0.02734,-0.004 -0.03906,-0.008 -0.01563,-0.004 -0.0938,-0.008 -0.01563,-0.004 -0.04297,-0.008 -0.02344,-0.008 -0.04297,-0.008 -0.02344,-0.004 -0.03906,-0.008 -0.02734,-0.004 -0.03906,-0.008 -0.02734,-0.008 -0.09766,-0.0195 -0.04297,-0.008 -0.02344,-0.004 -0.04297,-0.008 -0.02344,-0.008 -0.04297,-0.008 -0.01562,-0.004 -0.05078,-0.0117 -0.113281,-0.0234 h -0.0078 l -0.0625,-0.0156 -0.04687,-0.008 -0.01953,-0.004 -0.0625,-0.0156 -0.05078,-0.0156 -0.0039,-0.004 c -0.05859,-0.0117 -0.113281,-0.0234 -0.171875,-0.0391 h -0.0039 l -0.05078,-0.0117 -0.01563,-0.004 -0.05078,-0.0117 -0.01172,-0.004 c -0.09766,-0.0195 -0.191406,-0.043 -0.289062,-0.0664 h -0.0039 l -0.05859,-0.0156 h -0.0039 c -0.09766,-0.0234 -0.195312,-0.0469 -0.292968,-0.0742 h -0.0039 c -2.945313,-0.73828 -5.792969,-1.8125 -8.496094,-3.20703 -6.503906,-3.35156 -14.492188,-0.79687 -17.847656,5.70703 -3.351563,6.50391 -0.796876,14.49219 5.703124,17.84766 27.199219,13.99219 60.437502,7.55859 80.449222,-15.57031 4.78516,-5.53516 4.17969,-13.90235 -1.35156,-18.69141 -2.40625,-2.08203 -5.48047,-3.22656 -8.66016,-3.22656 z m 0,0"
           style="fill:#c7c5a1;fill-opacity:1;fill-rule:nonzero;stroke:none"
           id="path964" />
        <path
           d="m 116.98047,254.46094 31.04687,-31.04688 c 14.63282,-14.63281 38.36328,-14.63281 53,0 14.63282,14.63672 14.63282,38.36328 0,53 l -31.04687,31.04688 c -14.63672,14.63672 -38.36328,14.63672 -53,0 -14.63672,-14.63672 -14.63672,-38.36328 0,-53 z m 0,0"
           style="fill:#eeeee1;fill-opacity:1;fill-rule:nonzero;stroke:none"
           id="path966" />
        <path
           d="m 197.98437,160 c -7.32031,0 -13.25,5.93359 -13.25,13.25 0,3.52344 1.40235,6.89844 3.89454,9.38672 9.43359,9.39844 16.35937,21.01172 20.14453,33.77734 2.07031,7.01563 9.4375,11.02735 16.45703,8.95703 7.0039,-2.0664 11.01953,-9.41015 8.97265,-16.42187 -5.03515,-17.05078 -14.28125,-32.5625 -26.88671,-45.10547 -2.48047,-2.46484 -5.83594,-3.84766 -9.33204,-3.84375 z m 0,0"
           style="fill:#eeeee1;fill-opacity:1;fill-rule:nonzero;stroke:none"
           id="path968" />
        <path
           d="m 270.49219,323.92578 c 7.3164,-7.31641 19.17968,-7.31641 26.49609,0 l 68.52344,68.52344 c 7.32031,7.3164 7.32031,19.18359 0,26.5 -7.31641,7.3164 -19.17969,7.3164 -26.4961,0 l -68.52343,-68.52344 c -7.32032,-7.31641 -7.32032,-19.18359 0,-26.5 z m 0,0"
           style="fill:#eeeee1;fill-opacity:1;fill-rule:nonzero;stroke:none"
           id="path970" />
        <path
           d="m 402.98828,456.42578 c 7.32031,-7.32031 19.18359,-7.32031 26.5,0 l 15.52344,15.52344 c 7.3164,7.3164 7.3164,19.17969 0,26.5 -7.31641,7.3164 -19.1836,7.3164 -26.5,0 l -15.52344,-15.52344 c -7.31641,-7.32031 -7.31641,-19.18359 0,-26.5 z m 0,0"
           style="fill:#eeeee1;fill-opacity:1;fill-rule:nonzero;stroke:none"
           id="path972" />
      </g>
      <text
         xml:space="preserve"
         style="font-size:239.586px;line-height:1.25;font-family:sans-serif;letter-spacing:0px;stroke-width:5.98964"
         x="3267.0791"
         y="69.038567"
         id="text1002"
         transform="scale(0.8594353,1.1635547)"><tspan
           sodipodi:role="line"
           id="tspan1000"
           x="3267.0791"
           y="69.038567"
           style="stroke-width:5.98964">SecretKey</tspan></text>
    </g>
  </g>
</svg>
