<?xml version="1.0" encoding="UTF-8" standalone="no"?>
<svg
   xmlns:dc="http://purl.org/dc/elements/1.1/"
   xmlns:cc="http://creativecommons.org/ns#"
   xmlns:rdf="http://www.w3.org/1999/02/22-rdf-syntax-ns#"
   xmlns:svg="http://www.w3.org/2000/svg"
   xmlns="http://www.w3.org/2000/svg"
   xmlns:sodipodi="http://sodipodi.sourceforge.net/DTD/sodipodi-0.dtd"
   xmlns:inkscape="http://www.inkscape.org/namespaces/inkscape"
   version="1.1"
   id="svg933"
   width="1301.5573"
   height="1479.9729"
   viewBox="0 0 1301.5572 1479.9729"
   sodipodi:docname="OTP.svg"
   inkscape:version="1.0.1 (3bc2e813f5, 2020-09-07)">
  <metadata
     id="metadata939">
    <rdf:RDF>
      <cc:Work
         rdf:about="">
        <dc:format>image/svg+xml</dc:format>
        <dc:type
           rdf:resource="http://purl.org/dc/dcmitype/StillImage" />
        <dc:title></dc:title>
      </cc:Work>
    </rdf:RDF>
  </metadata>
  <defs
     id="defs937">
    <rect
       x="1140.5015"
       y="-38.805569"
       width="1240.4553"
       height="324.68292"
       id="rect919" />
  </defs>
  <sodipodi:namedview
     pagecolor="#ffffff"
     bordercolor="#666666"
     borderopacity="1"
     objecttolerance="10"
     gridtolerance="10"
     guidetolerance="10"
     inkscape:pageopacity="0"
     inkscape:pageshadow="2"
     inkscape:window-width="1920"
     inkscape:window-height="1001"
     id="namedview935"
     showgrid="false"
     inkscape:zoom="0.24023438"
     inkscape:cx="2053.4578"
     inkscape:cy="1373.4586"
     inkscape:window-x="-9"
     inkscape:window-y="-9"
     inkscape:window-maximized="1"
     inkscape:current-layer="g941"
     inkscape:document-rotation="0" />
  <g
     inkscape:groupmode="layer"
     inkscape:label="Image"
     id="g941"
     transform="translate(-1070.4059,1241.1318)">
    <g
       id="g940">
      <g
         id="g915"
         transform="matrix(2.5421235,0,0,2.3144714,1069.1348,-1241.1311)">
        <path
           d="M 457.35937,428.89453 H 184.28906 c -11.64062,0 -21.07422,-9.4375 -21.07422,-21.07812 0,-11.64063 9.4336,-21.07422 21.07422,-21.07422 h 273.07031 c 11.64063,0 21.07422,9.43359 21.07422,21.07422 0.004,11.64062 -9.43359,21.07812 -21.07422,21.07812 z m 0,0"
           fill="#9c6836"
           id="path865" />
        <path
           d="M 439.46875,312.51562 H 388.39844 C 348.52734,252.73047 352.17969,189.94141 359.65234,153.25 c 3.10547,-15.25781 9.32422,-29.64453 17.63282,-42.81641 6.54687,-10.38281 10.33203,-22.679684 10.3125,-35.867184 C 387.53906,39.082031 359.44141,9.429688 324.00391,7.582031 285.26562,5.5625 253.21875,36.378906 253.21875,74.675781 c 0,13.558594 4.02344,26.167969 10.92969,36.722659 7.47265,11.41015 13.11718,23.91015 16.17578,37.19922 8.2539,35.85937 14.34375,101.52343 -27.26172,163.91796 h -51.80078 c -36.19922,0 -65.54297,29.34375 -65.54297,65.54297 v 20.59375 h 369.28906 v -20.59375 c 0,-36.19922 -29.34375,-65.54297 -65.53906,-65.54297 z m 0,0"
           fill="#c48d58"
           id="path867" />
        <path
           d="m 343.66797,74.566406 c 0.0234,13.1875 -3.76563,25.484374 -10.3125,35.867184 -8.30469,13.17188 -14.52344,27.5586 -17.63281,42.81641 -7.47266,36.69141 -11.125,99.48047 28.75,159.26562 h 43.92578 C 348.52734,252.73047 352.17969,189.94141 359.65234,153.25 c 3.10547,-15.25781 9.32422,-29.64844 17.63282,-42.81641 6.54687,-10.38281 10.33203,-22.679684 10.3125,-35.867184 -0.0586,-35.484375 -28.15235,-65.136718 -63.58985,-66.984375 -8.99609,-0.46875 -17.62109,0.851563 -25.57422,3.605469 26.3125,9.15625 45.1875,34.304688 45.23438,63.378906 z m 0,0"
           fill="#bf8247"
           id="path869" />
        <path
           d="m 439.46875,312.51562 h -43.92969 c 36.19922,0 65.54297,29.34375 65.54297,65.54297 v 20.59375 h 43.92578 v -20.59375 c 0,-36.19922 -29.34375,-65.54297 -65.53906,-65.54297 z m 0,0"
           fill="#bf8247"
           id="path871" />
        <path
           d="m 297.1875,359.91016 c 0,79.86328 -64.74219,144.60156 -144.60156,144.60156 -79.859378,0 -144.597659,-64.73828 -144.597659,-144.60156 0,-79.85938 64.738281,-144.59766 144.597659,-144.59766 79.85937,0 144.60156,64.73828 144.60156,144.59766 z m 0,0"
           fill="#8dd0f0"
           id="path873" />
        <path
           d="m 152.58594,474.38672 c -63.121096,0 -114.472659,-51.35547 -114.472659,-114.47656 0,-63.11719 51.351563,-114.47266 114.472659,-114.47266 63.12109,0 114.47656,51.35547 114.47656,114.47266 0,63.12109 -51.35547,114.47656 -114.47656,114.47656 z m 0,0"
           fill="#dbf3ff"
           id="path875" />
        <path
           d="m 152.58594,245.4375 c -8.21485,0 -16.23047,0.87891 -23.96094,2.53125 51.65625,11.04297 90.51562,57.03906 90.51562,111.94141 0,54.90625 -38.85937,100.90234 -90.51562,111.94531 7.73047,1.65234 15.74609,2.53125 23.96094,2.53125 63.12109,0 114.47656,-51.35547 114.47656,-114.47656 0,-63.1211 -51.35547,-114.47266 -114.47656,-114.47266 z m 0,0"
           fill="#cceeff"
           id="path877" />
        <path
           d="m 439.46875,305.03125 h -47.01563 c -15.74218,-24.67969 -25.40625,-52.125 -28.74218,-81.64844 -2.53125,-22.42187 -1.42969,-45.51562 3.27734,-68.63672 2.78516,-13.66797 8.37891,-27.23437 16.62891,-40.3164 C 391.14453,102.5 395.10937,88.710938 395.08594,74.558594 395.02344,34.871094 363.97266,2.167969 324.39844,0.105469 303.66797,-0.976562 284.00391,6.273438 269.00781,20.511719 254,34.757812 245.73437,53.992188 245.73437,74.679688 c 0,14.558593 4.20313,28.675782 12.15235,40.820312 7.30078,11.15625 12.39844,22.85547 15.14453,34.78125 6.39062,27.76562 10.4375,68.71094 -3.81641,112.14062 -27.91796,-33.34765 -69.83593,-54.59375 -116.6289,-54.59375 -29.8125,0 -58.67969,8.625 -83.484378,24.94141 -8.070312,5.30859 0.164063,17.82422 8.230469,12.51172 22.351563,-14.70703 48.374999,-22.48047 75.253909,-22.48047 74.72265,0 137.11328,62.51172 137.11328,137.11328 0,75.60547 -61.50781,137.10938 -137.11328,137.10938 -75.601565,0 -137.109378,-61.50782 -137.109378,-137.11328 0,-33.30079 12.082032,-65.40625 34.023438,-90.40235 6.371094,-7.26172 -4.886719,-17.14062 -11.257812,-9.8789 C 13.902344,287.35937 0.5,322.97266 0.5,359.91016 0.5,443.77344 68.726562,512 152.58594,512 c 56,0 105.02343,-30.42969 131.41797,-75.62109 h 88.72265 c 9.65625,0 9.65625,-14.97266 0,-14.97266 h -81.05468 c 2.19921,-4.95703 4.14062,-10.05078 5.80859,-15.26563 h 173.35547 c 0.0703,0.55079 0.11328,1.10938 0.11328,1.67579 0,7.49218 -6.09766,13.58984 -13.58985,13.58984 h -43.69921 c -9.66016,0 -9.66016,14.97266 0,14.97266 h 43.69921 c 15.75,0 28.56641,-12.8125 28.56641,-28.5625 0,-0.5625 -0.0234,-1.1211 -0.0547,-1.67578 h 19.13672 c 4.13672,0 7.48828,-3.35157 7.48828,-7.48829 v -20.59375 c 0,-40.26953 -32.75781,-73.02734 -73.02734,-73.02734 z m 58.05469,86.13281 H 301.4375 c 2.11719,-10.08984 3.23437,-20.54297 3.23437,-31.2539 0,-13.80469 -1.85937,-27.1836 -5.32031,-39.90625 h 38.88281 c 9.66016,0 9.66016,-14.97657 0,-14.97657 h -43.8125 c -3.85156,-9.92187 -8.72265,-19.34765 -14.47265,-28.14062 19.40234,-50.27734 14.98437,-98.21094 7.67187,-129.96875 -3.14062,-13.65234 -8.92968,-26.98438 -17.20312,-39.62109 -6.35156,-9.70313 -9.71094,-20.980474 -9.71094,-32.621099 0,-16.535156 6.60938,-31.917969 18.60938,-43.304687 11.98828,-11.382813 27.73828,-17.175782 44.30078,-16.3125 31.6289,1.648437 56.4414,27.792968 56.49218,59.519531 0.0195,11.316406 -3.14843,22.332031 -9.15625,31.859375 -9.22265,14.62109 -15.49218,29.86719 -18.63671,45.31641 -5.02344,24.66015 -6.19532,49.32422 -3.48438,73.30859 3.75781,33.25 14.97656,64.07031 33.33984,91.60937 1.38672,2.08204 3.72657,3.33204 6.23047,3.33204 h 51.06641 c 32.01172,0 58.05469,26.04296 58.05469,58.05468 z m 0,0"
           id="path879" />
        <path
           d="m 152.58594,481.875 c 67.25,0 121.96484,-54.71484 121.96484,-121.96484 0,-67.25 -54.71484,-121.96094 -121.96484,-121.96094 -67.250002,0 -121.96094,54.71094 -121.96094,121.96094 0,67.25 54.710938,121.96484 121.96094,121.96484 z M 68.738281,352.42578 h -22.875 c 1.660157,-23.87891 11.183594,-45.62109 25.996094,-62.64844 l 16.144531,16.14063 c 6.828125,6.82812 17.417974,-3.76172 10.585938,-10.58985 L 82.449219,279.1875 c 17.03125,-14.8125 38.773441,-24.33594 62.648441,-25.99609 v 22.875 c 0,9.65625 14.97656,9.65625 14.97656,0 v -22.875 c 23.875,1.66015 45.61719,11.18359 62.64453,25.99609 l -16.13672,16.14062 c -6.83203,6.83204 3.75781,17.41797 10.58594,10.58985 l 16.14062,-16.14063 c 14.81641,17.02735 24.33985,38.77344 25.9961,62.64844 h -22.8711 c -9.66015,0 -9.66015,14.97266 0,14.97266 h 22.8711 c -1.65625,23.8789 -11.17969,45.62109 -25.9961,62.64843 l -16.14062,-16.14062 c -6.82813,-6.82813 -17.41797,3.76172 -10.58594,10.58984 l 16.13672,16.14063 c -17.02734,14.8125 -38.76953,24.33594 -62.64453,25.99609 v -22.875 c 0,-9.65625 -14.97656,-9.65625 -14.97656,0 v 22.875 c -23.875,-1.66015 -45.621098,-11.18359 -62.648441,-25.99609 l 16.140625,-16.14063 c 6.832036,-6.83203 -3.757813,-17.41797 -10.585938,-10.58984 L 71.863281,430.04687 C 57.046875,413.01953 47.523438,391.27734 45.867188,367.40234 h 22.871093 c 9.660157,-0.004 9.660157,-14.97656 0,-14.97656 z m 0,0"
           id="path881" />
        <path
           d="m 149.03125,368.51172 c 2.36719,1.27734 5.44141,1.1289 7.66797,-0.33203 l 35.14453,-23.09766 c 8.07422,-5.30469 -0.15234,-17.81641 -8.22266,-12.51562 l -23.54687,15.47265 v -39.33984 c 0,-9.65625 -14.97266,-9.65625 -14.97266,0 v 53.22266 c -0.004,2.75 1.50781,5.28125 3.92969,6.58984 z m 0,0"
           id="path883" />
        <path
           d="m 94.183594,104.82813 c 4.132812,0 7.484376,-3.35157 7.484376,-7.488286 V 7.488281 C 101.66797,3.351562 98.316406,0 94.183594,0 90.046875,0 86.695312,3.351562 86.695312,7.488281 v 89.851563 c 0,4.136716 3.351563,7.488286 7.488282,7.488286 z m 0,0"
           id="path885" />
        <path
           d="m 151.08984,175.71484 c 4.13282,0 7.48828,-3.35156 7.48828,-7.48828 V 49.417969 c 0,-4.132813 -3.35546,-7.484375 -7.48828,-7.484375 -4.13672,0 -7.48828,3.351562 -7.48828,7.484375 V 168.22656 c 0,4.13672 3.35156,7.48828 7.48828,7.48828 z m 0,0"
           id="path887" />
        <path
           d="m 38.773438,207.66016 c 4.132812,0 7.488281,-3.35157 7.488281,-7.48829 V 49.417969 c 0,-4.132813 -3.355469,-7.484375 -7.488281,-7.484375 -4.136719,0 -7.488282,3.351562 -7.488282,7.484375 V 200.17187 c 0,4.13672 3.351563,7.48829 7.488282,7.48829 z m 0,0"
           id="path889" />
        <path
           d="m 210.49219,195.67969 c 4.13281,0 7.48828,-3.35157 7.48828,-7.48828 v -50.91407 c 0,-4.13672 -3.35547,-7.48828 -7.48828,-7.48828 -4.13672,0 -7.48828,3.35156 -7.48828,7.48828 v 50.91407 c 0,4.13671 3.35156,7.48828 7.48828,7.48828 z m 0,0"
           id="path891" />
      </g>
      <text
         xml:space="preserve"
         id="text917"
         style="font-size:40px;line-height:1.25;font-family:sans-serif;letter-spacing:0px;white-space:pre;shape-inside:url(#rect919);"
         transform="matrix(5.3603367,0,0,7.1903585,-4972.9726,197.6015)"><tspan
           x="1140.502"
           y="-2.3114748"><tspan>TimeStamp</tspan></tspan></text>
    </g>
  </g>
</svg>
