<?xml version="1.0" encoding="UTF-8" standalone="no"?>
<svg
   xmlns:dc="http://purl.org/dc/elements/1.1/"
   xmlns:cc="http://creativecommons.org/ns#"
   xmlns:rdf="http://www.w3.org/1999/02/22-rdf-syntax-ns#"
   xmlns:svg="http://www.w3.org/2000/svg"
   xmlns="http://www.w3.org/2000/svg"
   xmlns:sodipodi="http://sodipodi.sourceforge.net/DTD/sodipodi-0.dtd"
   xmlns:inkscape="http://www.inkscape.org/namespaces/inkscape"
   version="1.1"
   id="svg933"
   width="1148.8781"
   height="1550.5502"
   viewBox="0 0 1148.878 1550.5502"
   sodipodi:docname="OTP.svg"
   inkscape:version="1.0.1 (3bc2e813f5, 2020-09-07)">
  <metadata
     id="metadata939">
    <rdf:RDF>
      <cc:Work
         rdf:about="">
        <dc:format>image/svg+xml</dc:format>
        <dc:type
           rdf:resource="http://purl.org/dc/dcmitype/StillImage" />
        <dc:title></dc:title>
      </cc:Work>
    </rdf:RDF>
  </metadata>
  <defs
     id="defs937">
    <rect
       x="1140.5015"
       y="-38.805569"
       width="1240.4553"
       height="324.68292"
       id="rect919" />
  </defs>
  <sodipodi:namedview
     pagecolor="#ffffff"
     bordercolor="#666666"
     borderopacity="1"
     objecttolerance="10"
     gridtolerance="10"
     guidetolerance="10"
     inkscape:pageopacity="0"
     inkscape:pageshadow="2"
     inkscape:window-width="1920"
     inkscape:window-height="1001"
     id="namedview935"
     showgrid="false"
     inkscape:zoom="0.24023438"
     inkscape:cx="1971.421"
     inkscape:cy="1149.01"
     inkscape:window-x="-9"
     inkscape:window-y="-9"
     inkscape:window-maximized="1"
     inkscape:current-layer="g941"
     inkscape:document-rotation="0" />
  <g
     inkscape:groupmode="layer"
     inkscape:label="Image"
     id="g941"
     transform="translate(-122.1989,1349.6913)">
    <g
       id="g1202">
      <g
         id="008---Cutting-Paper"
         fill="none"
         transform="matrix(19.147967,0,0,21.79199,122.1989,-1349.6913)">
        <g
           id="Icons"
           transform="translate(1,1)">
          <path
             id="Shape"
             d="m 36,12 v 37 c 0,1.656854 -1.343146,3 -3,3 H 3 C 1.3431457,52 0,50.656854 0,49 V 3 C 0,1.3431457 1.3431457,0 3,0 h 21 z"
             fill="#fdd834" />
          <path
             id="path1118"
             d="m 33,9 v 40 c 0,1.656854 -1.343146,3 -3,3 H 3 C 1.3431457,52 0,50.656854 0,49 V 3 C 0,1.3431457 1.3431457,0 3,0 h 21 z"
             fill="#ffeb3a" />
          <path
             id="path1120"
             d="M 36,12 H 27 C 25.343146,12 24,10.656854 24,9 V 0 Z"
             fill="#fec108" />
          <path
             id="path1122"
             d="m 49,13 c -4.91,0 -9,3.54 -9,8 6.86e-4,0.878887 0.163406,1.750115 0.48,2.57 l -4.26,3.53 4.7,3.9 3.66,-3 c 1.377397,0.667176 2.889555,1.009293 4.42,1 5,0 9,-3.58 9,-8 0,-4.42 -4,-8 -9,-8 z m -5,8 c 0,-2.07 2.07,-4 5,-4 2.76,0 5,1.79 5,4 0,2.21 -2.24,4 -5,4 -2.94,0 -5,-1.93 -5,-4 z"
             fill="#3f51b5" />
          <path
             id="path1124"
             d="m 49,13 c -0.502213,0.0044 -1.003478,0.04448 -1.5,0.12 4.26,0.64 7.5,3.88 7.5,7.88 0,4 -3.23,7.23 -7.48,7.88 0.489856,0.07511 0.984442,0.115212 1.48,0.12 5,0 9,-3.58 9,-8 0,-4.42 -4,-8 -9,-8 z"
             fill="#283593" />
          <path
             id="path1126"
             d="M 36.22,34.9 36,35.07 24.21,44.84 c -2.120156,1.734732 -5.241446,1.440439 -7,-0.66 L 16.57,43.41 31.51,31 36,34.72 Z"
             fill="#3f51b5" />
          <path
             id="path1128"
             d="m 49,33 c -1.530445,-0.0093 -3.042603,0.332824 -4.42,1 L 24.21,17.16 c -1.303786,-1.078904 -3.064831,-1.425092 -4.68,-0.92 -1.228803,0.436512 -2.281943,1.261472 -3,2.35 L 40.48,38.43 C 40.163406,39.249885 40.000686,40.121113 40,41 c 0,4.48 4.11,8 9,8 4.89,0 9,-3.58 9,-8 0,-4.42 -4,-8 -9,-8 z m -5,8 c 0,-2.07 2.07,-4 5,-4 2.76,0 5,1.79 5,4 0,2.21 -2.24,4 -5,4 -2.94,0 -5,-1.93 -5,-4 z"
             fill="#02a9f4" />
          <path
             id="path1130"
             d="m 49,33 c -0.495558,0.0048 -0.990144,0.04489 -1.48,0.12 C 51.77,33.77 55,37 55,41 c 0,4 -3.24,7.24 -7.5,7.88 0.496522,0.07552 0.997787,0.115619 1.5,0.12 5,0 9,-3.58 9,-8 0,-4.42 -4,-8 -9,-8 z"
             fill="#0377bc" />
        </g>
        <g
           id="Layer_10"
           fill="#000000">
          <path
             id="path1133"
             d="m 4,54 h 30 c 2.209139,0 4,-1.790861 4,-4 v -9 c 0,-0.552285 -0.447715,-1 -1,-1 -0.552285,0 -1,0.447715 -1,1 v 9 c 0,1.104569 -0.895431,2 -2,2 H 4 C 2.8954305,52 2,51.104569 2,50 V 33 H 4 C 4.5522847,33 5,32.552285 5,32 5,31.447715 4.5522847,31 4,31 H 2 V 4 C 2,2.8954305 2.8954305,2 4,2 h 20 v 8 c 0,2.209139 1.790861,4 4,4 h 8 v 9 c 0,0.552285 0.447715,1 1,1 0.552285,0 1,-0.447715 1,-1 V 13 c -0.01566,-0.262185 -0.117628,-0.511822 -0.29,-0.71 l -12,-12 C 25.515787,0.11128757 25.263793,0.00836043 25,0 H 4 C 1.790861,0 0,1.790861 0,4 v 46 c 0,2.209139 1.790861,4 4,4 z M 28,12 c -1.10457,0 -2,-0.89543 -2,-2 V 3.41 L 34.59,12 Z" />
          <path
             id="path1135"
             d="m 56,22 c 0,-2.76 -2.69,-5 -6,-5 -3.31,0 -6,2.24 -6,5 0,2.76 2.69,5 6,5 3.31,0 6,-2.24 6,-5 z m -10,0 c 0,-1.65 1.79,-3 4,-3 2.21,0 4,1.35 4,3 0,1.65 -1.79,3 -4,3 -2.21,0 -4,-1.35 -4,-3 z" />
          <path
             id="path1137"
             d="m 50,47 c 3.31,0 6,-2.24 6,-5 0,-2.76 -2.69,-5 -6,-5 -3.31,0 -6,2.24 -6,5 0,2.76 2.69,5 6,5 z m 0,-8 c 2.21,0 4,1.35 4,3 0,1.65 -1.79,3 -4,3 -2.21,0 -4,-1.35 -4,-3 0,-1.65 1.79,-3 4,-3 z" />
          <path
             id="path1139"
             d="m 60,22 c 0,-5 -4.49,-9 -10,-9 -6.54,0 -11.31,5.58 -9.68,11.24 L 37.22,26.8 25.85,17.39 C 24.624818,16.373937 23.046115,15.886328 21.461343,16.03449 19.876571,16.182653 18.41561,16.954443 17.4,18.18 c -0.56,0.68 -0.92,1 -0.87,1.5 0.02451,0.265608 0.154112,0.510417 0.36,0.68 L 30.94,32 l -14,11.64 c -0.205888,0.169583 -0.335493,0.414392 -0.36,0.68 0,0.49 0.19,0.67 0.87,1.5 1.01561,1.225557 2.476571,1.997347 4.061343,2.14551 C 23.096115,48.113672 24.674818,47.626063 25.9,46.61 l 11.32,-9.41 3.1,2.56 C 38.68,45.44 43.48,51 50,51 55.51,51 60,47 60,42 60,35.47 52.44,31 45.73,33.86 L 43.49,32 45.73,30.14 C 52.44,33 60,28.52 60,22 Z M 24.57,45.07 c -1.701281,1.407534 -4.221286,1.170304 -5.63,-0.53 L 32.51,33.3 35.65,35.9 Z M 46,35.93 c 5.37,-2.67 12,0.73 12,6.07 0,3.86 -3.59,7 -8,7 -5.45,0 -9.32,-4.69 -7.59,-9.21 0.155824,-0.399872 0.03913,-0.854585 -0.29,-1.13 L 18.94,19.46 c 1.408714,-1.700304 3.928719,-1.937534 5.63,-0.53 L 44.94,35.8 c 0.298678,0.24417 0.71117,0.294759 1.06,0.13 z m -1.06,-7.73 -3,2.5 -3.14,-2.6 3.34,-2.76 c 0.329128,-0.275416 0.445824,-0.730128 0.29,-1.13 C 40.68,19.67 44.57,15 50,15 c 4.41,0 8,3.14 8,7 0,5.33 -6.59,8.75 -12,6.07 -0.34883,-0.164759 -0.761322,-0.11417 -1.06,0.13 z" />
          <circle
             id="Oval"
             cx="37"
             cy="32"
             r="1" />
          <path
             id="path1142"
             d="m 8,31 c -0.5522848,0 -1,0.447715 -1,1 0,0.552285 0.4477152,1 1,1 h 3 c 0.552285,0 1,-0.447715 1,-1 0,-0.552285 -0.447715,-1 -1,-1 z" />
          <path
             id="path1144"
             d="m 15,33 h 3 c 0.552285,0 1,-0.447715 1,-1 0,-0.552285 -0.447715,-1 -1,-1 h -3 c -0.552285,0 -1,0.447715 -1,1 0,0.552285 0.447715,1 1,1 z" />
          <path
             id="path1146"
             d="m 25,33 c 0.552285,0 1,-0.447715 1,-1 0,-0.552285 -0.447715,-1 -1,-1 h -3 c -0.552285,0 -1,0.447715 -1,1 0,0.552285 0.447715,1 1,1 z" />
        </g>
      </g>
      <text
         xml:space="preserve"
         style="font-size:301.579px;line-height:1.25;font-family:sans-serif;letter-spacing:0px;stroke-width:7.53944"
         x="203.56306"
         y="134.49359"
         id="text1179"
         transform="scale(0.69231933,1.4444202)"><tspan
           sodipodi:role="line"
           id="tspan1177"
           x="203.56306"
           y="134.49359"
           style="stroke-width:7.53944">Truncation</tspan></text>
    </g>
  </g>
</svg>
