<svg id="레이어_1" data-name="레이어 1" xmlns="http://www.w3.org/2000/svg" xmlns:xlink="http://www.w3.org/1999/xlink" viewBox="0 0 218.39 156"><defs><style>.cls-1,.cls-23{fill:none;}.cls-2{clip-path:url(#clip-path);}.cls-3,.cls-9{fill:#395493;}.cls-10,.cls-11,.cls-17,.cls-18,.cls-3,.cls-4{opacity:0.1;}.cls-10,.cls-11,.cls-17,.cls-3,.cls-4,.cls-7,.cls-9{isolation:isolate;}.cls-12,.cls-4{fill:#eb6b72;}.cls-5{fill:url(#무제_그라디언트_2);}.cls-6,.cls-7{fill:#fff;}.cls-7{opacity:0.04;}.cls-10,.cls-8{fill:#585571;}.cls-9{opacity:0.2;}.cls-11,.cls-17{fill:#040000;}.cls-13{fill:url(#무제_그라디언트_2-2);}.cls-14{fill:#ba6c91;}.cls-15{fill:#3e3c54;}.cls-16{fill:#5669b1;}.cls-17{stroke:#eb6b72;}.cls-17,.cls-23{stroke-miterlimit:10;}.cls-19{fill:#6b5a50;}.cls-20{fill:#525360;}.cls-21{fill:#9b9ab1;}.cls-22{fill:#529ca1;}.cls-23{stroke:#525360;stroke-width:2px;}</style><clipPath id="clip-path" transform="translate(-170 -311.58)"><rect class="cls-1" x="170.4" y="311.58" width="218" height="156"/></clipPath><linearGradient id="무제_그라디언트_2" x1="282.78" y1="407.55" x2="282.78" y2="509.97" gradientTransform="matrix(1, 0, 0, -1, 0.14, 842.06)" gradientUnits="userSpaceOnUse"><stop offset="0" stop-color="#7f8080" stop-opacity="0.25"/><stop offset="0.54" stop-color="#7f8080" stop-opacity="0.12"/><stop offset="1" stop-color="#7f8080" stop-opacity="0.1"/></linearGradient><linearGradient id="무제_그라디언트_2-2" x1="344.83" y1="-91449.73" x2="344.83" y2="-30634.53" xlink:href="#무제_그라디언트_2"/></defs><title>main-section-img-1</title><g class="cls-2"><path class="cls-3" d="M384.94,416.46c-5.05,10.43-15.32,17.4-26,22a98.72,98.72,0,0,1-45.65,7.61q-4.09-.27-8.16-.87a102.54,102.54,0,0,1-27.26-7.94q-3.77-1.68-7.36-3.69A94,94,0,0,1,259,426.05c-.91-.7-1.82-1.42-2.71-2.16-.62-.51-1.23-1-1.85-1.53a23.51,23.51,0,0,0-4.18-2.84,14.36,14.36,0,0,0-1.39-.62c-4.78-1.82-10.28-1.13-15.25.29-3.78,1.07-7.46,2.55-11.24,3.6a38.85,38.85,0,0,1-5.12,1.09,27.3,27.3,0,0,1-11.5-1l-.32-.1c-.53-.17-1.06-.35-1.59-.55l-.31-.12c-.51-.2-1-.41-1.49-.63l-.32-.15c-.51-.23-1-.48-1.49-.75l-.52-.28a30.87,30.87,0,0,1-7.45-5.8l-.19-.19c-.31-.33-.6-.66-.89-1l-.32-.38c-.34-.42-.67-.84-1-1.28l-.13-.19a27.37,27.37,0,0,1-3.21-5.8c0-.06-.05-.13-.08-.19-.25-.65-.48-1.32-.69-2-.09-.28-.17-.57-.24-.86a1.82,1.82,0,0,1-.07-.25,51.43,51.43,0,0,1-1.17-12.7v-1.5a145.24,145.24,0,0,1,1.16-20.76.68.68,0,0,1,0-.14,63.21,63.21,0,0,1,1.39-6.81,49.28,49.28,0,0,1,2.34-6.91,64.11,64.11,0,0,1,9.55-15.19c9.54-11.71,22.06-21.55,36.71-25.22a54,54,0,0,1,46.06,10c3.88,3.09,7.37,6.74,11.73,9.11,3.8,2.07,8.26,2.92,12.34,1.3,3.36-1.34,5.56-2,9.34-1.81a78.43,78.43,0,0,1,22.9,4.8l.89.33c19.17,7.33,35.64,21.9,44.2,40.61q.35.75.66,1.5C388.73,390.86,390.58,404.84,384.94,416.46Z" transform="translate(-170 -311.58)"/><path class="cls-4" d="M193.29,453c9.28,0,16.8-1.21,16.8-2.7s-7.52-2.7-16.8-2.7-16.8,1.21-16.8,2.7S184,453,193.29,453Z" transform="translate(-170 -311.58)"/><path class="cls-4" d="M344,467.58c16.45,0,29.78-1.29,29.78-2.89S360.45,461.8,344,461.8s-29.79,1.29-29.79,2.89S327.55,467.58,344,467.58Z" transform="translate(-170 -311.58)"/><path class="cls-5" d="M371,332.08H194.87a2.38,2.38,0,0,0-2.37,2.38v97.67a2.38,2.38,0,0,0,2.37,2.38H371a2.38,2.38,0,0,0,2.37-2.38V334.46A2.38,2.38,0,0,0,371,332.08Z" transform="translate(-170 -311.58)"/><path class="cls-6" d="M370.7,333.52H195.16a2.39,2.39,0,0,0-2.38,2.38v95.89a2.39,2.39,0,0,0,2.38,2.38H370.7a2.39,2.39,0,0,0,2.38-2.38V335.9A2.39,2.39,0,0,0,370.7,333.52Z" transform="translate(-170 -311.58)"/><path class="cls-6" d="M370.7,333.52H195.16a2.39,2.39,0,0,0-2.38,2.38v95.89a2.39,2.39,0,0,0,2.38,2.38H370.7a2.39,2.39,0,0,0,2.38-2.38V335.9A2.39,2.39,0,0,0,370.7,333.52Z" transform="translate(-170 -311.58)"/><path class="cls-7" d="M370.7,333.52H195.16a2.39,2.39,0,0,0-2.38,2.38v95.89a2.39,2.39,0,0,0,2.38,2.38H370.7a2.39,2.39,0,0,0,2.38-2.38V335.9A2.39,2.39,0,0,0,370.7,333.52Z" transform="translate(-170 -311.58)"/><path class="cls-8" d="M372.16,332.37H193.7a.89.89,0,0,0-.65.27.91.91,0,0,0-.27.64v3.87H373.07v-3.87a.92.92,0,0,0-.91-.91Z" transform="translate(-170 -311.58)"/><path class="cls-6" d="M196.38,336a1.24,1.24,0,1,0-1.23-1.24A1.24,1.24,0,0,0,196.38,336Z" transform="translate(-170 -311.58)"/><path class="cls-6" d="M199.72,336a1.24,1.24,0,1,0-1.24-1.24A1.24,1.24,0,0,0,199.72,336Z" transform="translate(-170 -311.58)"/><path class="cls-6" d="M203.05,336a1.24,1.24,0,1,0-1.24-1.24A1.24,1.24,0,0,0,203.05,336Z" transform="translate(-170 -311.58)"/><path class="cls-9" d="M256,346.15H207.63v4.1H256Z" transform="translate(-170 -311.58)"/><path class="cls-10" d="M358.23,362.61H207.63v63.16h150.6Z" transform="translate(-170 -311.58)"/><path class="cls-11" d="M295.81,366.73h-2.58v-5a10.4,10.4,0,0,0-10.16-10.43,10.27,10.27,0,0,0-4,.75,10.36,10.36,0,0,0-6.46,9.54v5.15h-2.57a4.3,4.3,0,0,0-4.29,4.29v20.59a4.3,4.3,0,0,0,4.29,4.29h25.75a4.3,4.3,0,0,0,4.29-4.29V371a4.3,4.3,0,0,0-4.29-4.29Zm-11.37,13.39v7.37A1.56,1.56,0,0,1,283,389a1.76,1.76,0,0,1-.6-.1,1.52,1.52,0,0,1-.51-.32,1.43,1.43,0,0,1-.34-.5,1.45,1.45,0,0,1-.13-.59v-7.42a3.47,3.47,0,0,1-1.59-1.6,3.42,3.42,0,0,1-.24-2.25,3.42,3.42,0,0,1,6.67,0,3.42,3.42,0,0,1-.24,2.25,3.47,3.47,0,0,1-1.59,1.6Zm5.79-13.39H275.64v-5.15a7.29,7.29,0,1,1,14.58,0Z" transform="translate(-170 -311.58)"/><path class="cls-12" d="M295.81,366.35h-2.58v-5a10.4,10.4,0,0,0-10.16-10.43,10.27,10.27,0,0,0-4,.75,10.36,10.36,0,0,0-6.46,9.54v5.15h-2.57a4.3,4.3,0,0,0-4.29,4.29v20.59a4.3,4.3,0,0,0,4.29,4.29h25.75a4.3,4.3,0,0,0,4.29-4.29V370.64a4.3,4.3,0,0,0-4.29-4.29Zm-11.37,13.38v7.38a1.55,1.55,0,0,1-.41,1.05,1.5,1.5,0,0,1-1,.49,1.54,1.54,0,0,1-.6-.09,1.52,1.52,0,0,1-.51-.32,1.43,1.43,0,0,1-.34-.5,1.45,1.45,0,0,1-.13-.59v-7.42a3.47,3.47,0,0,1-1.59-1.6,3.43,3.43,0,1,1,6.19,0,3.47,3.47,0,0,1-1.59,1.6Zm5.79-13.38H275.64V361.2a7.29,7.29,0,1,1,14.58,0Z" transform="translate(-170 -311.58)"/><path class="cls-10" d="M358.23,356.53H343v3.6h15.25Z" transform="translate(-170 -311.58)"/><path class="cls-13" d="M363.42,465.56a6.25,6.25,0,0,0-.51-1.45l-2.29-3.41h0a5.89,5.89,0,0,1,0-2.55c.36-.84-1.28-2.91-1.28-2.91a1.23,1.23,0,0,1,.32-1.16c.53-.64-.32-2.51-.32-2.51s-.4-3.91-.44-4.51-.36-3.9-.36-3.9l-.76-7-1.36-18.6,0-.35a2.21,2.21,0,0,0,.26-.14l-.27-10.28.23-.21c2-1.85,6.76-6.13,6.71-6.23s-.57-7.15-.63-8.91a10.64,10.64,0,0,0-.81-3.65c-.12-.23-.46-1.78-.6-2.43,0-.18-.06-.29-.06-.29s-1.39-2.63-1.27-3.83.36-2.09-2.58-2.51a11.37,11.37,0,0,1-3.95-1.38,11,11,0,0,0-2.83-1.41s-.82-1.53-1.4-1a8.21,8.21,0,0,1-.54-1.7l0-.1a5.64,5.64,0,0,0,2.22-3.17c0-.07,0-.15.05-.22l.18,0c.5,0,.81-.56,1.27-.73.19-.08.43-.09.57-.24a.49.49,0,0,0,.11-.2.53.53,0,0,0,0-.22.43.43,0,0,0,0-.16v0c-.13-.69-.66-1.31-.6-2s.63-1.25.59-1.89a.77.77,0,0,0,0-.15v0a1.6,1.6,0,0,0-.38-.67,2.08,2.08,0,0,0-.78-.66c-.27-.12-.57-.15-.82-.28-.73-.4-.72-1.43-1.16-2.14a1.79,1.79,0,0,0-.76-.68,1.91,1.91,0,0,0-1-.19c-.54.05-1,.34-1.56.44a4.1,4.1,0,0,1-2.17-.39,6,6,0,0,0-2.14-.57,1.81,1.81,0,0,0-1.77,1.09c-.12.38-.07.79-.16,1.17a2.56,2.56,0,0,1-1.38,1.51c-.38.21-.83.45-.95.85v0s0,.07,0,.1v.13a2.57,2.57,0,0,0,.24.79,2.12,2.12,0,0,1,0,1.53c-.14.37-.38.68-.51,1a2,2,0,0,0-.13.52v.22a1.71,1.71,0,0,0,.19.8,1.39,1.39,0,0,0,.36.44,1.31,1.31,0,0,0,.49.27c.39.09.62-.28,1-.19l.22.07a2.34,2.34,0,0,0,0,.26,5.53,5.53,0,0,0,1.93,3.26.68.68,0,0,0,0,.14,13.61,13.61,0,0,1,.16,2.3s-.6-.88-1.43.81a17.09,17.09,0,0,1-2.88,1.38c-.74.14-3.37,1.06-3.37,1.06A2.27,2.27,0,0,1,333,379c-.82,0-1.5,1.8-1.4,2.78s-.06,1.69-.83,1.73-.34,1.59-.34,1.61l-.07.34c-.14.68-.47,2.14-.58,2.37a10.65,10.65,0,0,0-.82,3.65c-.05,1.76-.57,8.79-.62,8.91s3.18,3,5.45,5.09l.33.3-1,9.76a2.57,2.57,0,0,0,.33,1.07,2.67,2.67,0,0,0,.74.83c0,.11,0,.23,0,.35a12,12,0,0,1-.32,2.88,19.43,19.43,0,0,0-.24,4.07s-.32,7-.72,7.74a5.26,5.26,0,0,0-.36,2.66c.12.31-.4,8.7-.4,8.7l-.4,3.75s.12,3.58-.24,3.66-.57,2.56-.57,2.56-1.28,1.75-.72,2.39-.08.92-.14,1.08-1.22.76-.38,3l0,.06c-.79,1.1-3.29,4.63-3.13,5.16a1.42,1.42,0,0,0,.66.8,3.89,3.89,0,0,0,3.2,0c2.67-.86,2.48-1.48,2.48-1.48a1.11,1.11,0,0,1,.34-.76,1.13,1.13,0,0,1,.78-.31,3.14,3.14,0,0,0,1.92-1.1l-.13-.48-.17-.67c0-.19.15-.52.76-.7.92-.28.68-2,.68-2s-.08-1.83.32-2.07.24-3.27.24-3.27a22.18,22.18,0,0,1,1.08-3.67c.64-1.48,1.41-10.25,1.41-10.25a40.42,40.42,0,0,1,1-5.54,31.56,31.56,0,0,0,.92-4.71s3-5.74,3-7c0,0,.38-1.2.76.12s1.45,4.47,1.45,4.47l1,3.87,1.24,5.78.8,4.86a7.66,7.66,0,0,0,.19,2.48c.32.64.76,2.11.52,2.39s.48,1.6.69,1.87,0,6.19,0,6.19.92,5,2.24,5.89a1.64,1.64,0,0,0,.29.16c0,.54,0,1.27,0,1.65a.73.73,0,0,0,0,.25,6.85,6.85,0,0,0,1.77,1.24c.28,0,1.28.69,1.32,1s2.93,1.78,3.34,1.82,2.39.4,2.66-.16A.93.93,0,0,0,363.42,465.56Zm-7.1-71.87.21.18s.21,1.65.36,2.14a4.14,4.14,0,0,1,0,1.45,3.17,3.17,0,0,0,.21,1.05c.18.36-.36,1.14-.36,1.14h-.48l-.15-6.16ZM342,375.3v0a.08.08,0,0,0,0,0ZM334.61,399a.75.75,0,0,1,0-.51,1,1,0,0,0,.1-.28,4,4,0,0,0,.11-.76h0a4.13,4.13,0,0,1,0-1.45c.14-.46.36-2.13.36-2.13l.13-.12.32-.28a2.57,2.57,0,0,1,0-.27,22,22,0,0,1,0,3.13,4.59,4.59,0,0,0-.6,1.77,7.83,7.83,0,0,1-.13,1.48A3.1,3.1,0,0,1,334.61,399Z" transform="translate(-170 -311.58)"/><path class="cls-14" d="M350,376.82v2.37l-4.85,2.44s-4.83-2.92-3.64-4.08c.76-.73.62-2.75.41-4.14-.12-.8-.26-1.4-.26-1.4s8.66-2.47,7.36-.59a2.92,2.92,0,0,0-.33,2.24A10.29,10.29,0,0,0,350,376.82Z" transform="translate(-170 -311.58)"/><path class="cls-15" d="M336.65,400l-.63,7.71-2.15-2c-2.25-2.06-5.45-5-5.41-5.07s.57-7.11.63-8.87a10.52,10.52,0,0,1,.8-3.63c.11-.23.43-1.68.57-2.36l.07-.35,1.05-.42s4.38,4.88,4.38,5-.3,3.84-.3,3.84l-.31.27-.13.11s-.21,1.64-.36,2.13a3.75,3.75,0,0,0,0,1.44,5,5,0,0,1-.11.76c0,.09-.06.19-.1.28a.67.67,0,0,0,0,.5,2.36,2.36,0,0,0,.33.63Z" transform="translate(-170 -311.58)"/><path class="cls-15" d="M363.17,400.65c.05.09-4.62,4.35-6.64,6.19l-.92.84L355,400h1.61s.54-.78.36-1.14a3.06,3.06,0,0,1-.21-1,4.07,4.07,0,0,0,0-1.44c-.15-.49-.36-2.13-.36-2.13l-.2-.18-.25-.21s-.29-3.75-.29-3.84,4.37-5,4.37-5l1.05.42s0,.11.06.29c.14.65.47,2.18.59,2.42a10.52,10.52,0,0,1,.8,3.63C362.6,393.54,363.11,400.53,363.17,400.65Z" transform="translate(-170 -311.58)"/><path class="cls-15" d="M363.19,466.09c-.28.56-2.24.19-2.65.16s-3.26-1.47-3.3-1.81-1-1-1.31-1a6.88,6.88,0,0,1-1.75-1.23.69.69,0,0,1,0-.25c0-.65,0-2.33,0-2.33l5.76.32,2.79,4.21a5.15,5.15,0,0,1,.51,1.44A.93.93,0,0,1,363.19,466.09Z" transform="translate(-170 -311.58)"/><path class="cls-11" d="M363.19,466.09c-.28.56-2.24.19-2.65.16s-3.26-1.47-3.3-1.81-1-1-1.31-1a6.88,6.88,0,0,1-1.75-1.23.69.69,0,0,1,0-.25c0-.65,0-2.33,0-2.33l5.76.32,2.79,4.21a5.15,5.15,0,0,1,.51,1.44A.93.93,0,0,1,363.19,466.09Z" transform="translate(-170 -311.58)"/><path class="cls-11" d="M363.19,466.09c-.28.56-2.24.19-2.65.16s-3.26-1.47-3.3-1.81-1-1-1.31-1a6.88,6.88,0,0,1-1.75-1.23.69.69,0,0,1,0-.25l1.86,1.18a7.42,7.42,0,0,1,1.51,1.22,10.94,10.94,0,0,0,3,1.4,14.33,14.33,0,0,1,2.7-.16A.93.93,0,0,1,363.19,466.09Z" transform="translate(-170 -311.58)"/><path class="cls-15" d="M336,462.62a3.11,3.11,0,0,1-1.9,1.09,1.11,1.11,0,0,0-1.11,1.07s.19.62-2.45,1.47a3.86,3.86,0,0,1-3.17,0,1.47,1.47,0,0,1-.66-.79c-.18-.64,3.34-5.46,3.34-5.46l3.19-.19,2.29,1,.35,1.31Z" transform="translate(-170 -311.58)"/><path class="cls-11" d="M336,462.62a3.11,3.11,0,0,1-1.9,1.09,1.11,1.11,0,0,0-1.11,1.07s.19.62-2.45,1.47a3.86,3.86,0,0,1-3.17,0,1.47,1.47,0,0,1-.66-.79c-.18-.64,3.34-5.46,3.34-5.46l3.19-.19,2.29,1,.35,1.31Z" transform="translate(-170 -311.58)"/><path class="cls-11" d="M336,462.62a3.11,3.11,0,0,1-1.9,1.09,1.11,1.11,0,0,0-1.11,1.07s.19.62-2.45,1.47a3.86,3.86,0,0,1-3.17,0,19.51,19.51,0,0,0,5.14-1.43c.4-.4.9-1.49,1.23-1.51a12.62,12.62,0,0,0,2.14-1.17Z" transform="translate(-170 -311.58)"/><path class="cls-15" d="M360.49,458.19a5.68,5.68,0,0,0,0,2.54s-5.33.28-6.63-.59-2.22-5.88-2.22-5.88.19-5.87,0-6.15-.91-1.59-.68-1.86-.19-1.75-.51-2.39a7,7,0,0,1-.19-2.46l-.8-4.84-1.23-5.75-1-3.85s-1.07-3.14-1.44-4.45-.74-.12-.74-.12c0,1.27-3,7-3,7a32.09,32.09,0,0,1-.91,4.68,40.26,40.26,0,0,0-1,5.52s-.76,8.73-1.39,10.2a23.47,23.47,0,0,0-1.06,3.65s.16,3-.23,3.25-.34,2.07-.34,2.07.24,1.74-.67,2-.76.88-.76.88-5.09.83-5.92-1.39.32-2.82.38-3,.7-.44.14-1.07.72-2.38.72-2.38.2-2.46.55-2.54.24-3.65.24-3.65l.4-3.74s.52-8.33.4-8.65a5.33,5.33,0,0,1,.35-2.66c.4-.76.72-7.7.72-7.7a19.8,19.8,0,0,1,.23-4.05,12,12,0,0,0,.32-2.87c0-.86,0-1.58,0-1.58l4.45-1.66,5.71-1.83,4.8,2.3,7,1.35.09,1.21,1.34,18.52.76,7s.32,3.3.36,3.89.43,4.49.43,4.49.83,1.86.32,2.5a1.19,1.19,0,0,0-.32,1.14S360.85,457.36,360.49,458.19Z" transform="translate(-170 -311.58)"/><path class="cls-11" d="M349,371.42a3,3,0,0,0-.33,2.24,5.57,5.57,0,0,1-6.76-.25c-.12-.81-.26-1.4-.26-1.4S350.28,369.54,349,371.42Z" transform="translate(-170 -311.58)"/><path class="cls-14" d="M351,369a5.57,5.57,0,0,1-3.44,5.15,5.58,5.58,0,0,1-7.6-4.06,5.57,5.57,0,0,1,5.47-6.66,5.43,5.43,0,0,1,2.14.41,5.59,5.59,0,0,1,3,3A5.43,5.43,0,0,1,351,369Z" transform="translate(-170 -311.58)"/><path class="cls-11" d="M352.16,378.25l-1.83,32.53-9.93-2.08-2-13,1.95-17.51,1.46.19,2.58.33,2.56.16,2.78-.31Z" transform="translate(-170 -311.58)"/><path class="cls-16" d="M352.16,378.49,350.33,411l-9.93-2.09-2-13,1.95-17.51,1.46.19,2.58.33,2.56.16,2.78-.31Z" transform="translate(-170 -311.58)"/><path class="cls-15" d="M344,379.37l3.57.12-1,1.4a12.86,12.86,0,0,0,.54,3.66c.48.81.34,13.39.34,13.39l-.95,1.81-1.63-2,0-16.61Z" transform="translate(-170 -311.58)"/><path class="cls-11" d="M344,379.37l3.57.12-1,1.4a12.86,12.86,0,0,0,.54,3.66c.48.81.34,13.39.34,13.39l-.95,1.81-1.63-2,0-16.61Z" transform="translate(-170 -311.58)"/><path class="cls-11" d="M349.59,375.67l-3.33,3.7,1.9,2,3.16-3.08Z" transform="translate(-170 -311.58)"/><path class="cls-16" d="M349.59,375.44l-3.33,3.69,1.9,2,3.16-3.07Z" transform="translate(-170 -311.58)"/><path class="cls-11" d="M344.85,379.19l-3.37-3.38-.32,1.77,1.55,3.87Z" transform="translate(-170 -311.58)"/><path class="cls-16" d="M345,379l-3.37-3.37-.32,1.76,1.55,3.87Z" transform="translate(-170 -311.58)"/><path class="cls-11" d="M356.33,417.77a16.69,16.69,0,0,1-5.14,1.49c-3.27.41-5.41-3.75-5.41-3.75l-1.25,1.62c-.4,1.73-6.46,2.17-8.92,1.51a3.9,3.9,0,0,1-1.41-.67c0-.86,0-1.57,0-1.57l4.45-1.67,5.71-1.82,4.8,2.3,7,1.35Z" transform="translate(-170 -311.58)"/><path class="cls-11" d="M352.16,378.49,350.33,411l-9.93-2.09-2-13,1.95-17.51,1.46.19a15.28,15.28,0,0,1-.21,1.91c-.24,1.11,1.23,9,1.23,9s2.79,8.85,4.05,7.58,3-8,3-8c1.22-2.5,0-9.51-.07-9.65a2.86,2.86,0,0,1-.11-.64Z" transform="translate(-170 -311.58)"/><path class="cls-11" d="M356.44,403.66l.09,3.19-.92.83L355,400h1.37Z" transform="translate(-170 -311.58)"/><path class="cls-11" d="M334.89,397.78a3.87,3.87,0,0,1-.11.76c0-.07,0-.11,0-.11S334.78,398.12,334.89,397.78Z" transform="translate(-170 -311.58)"/><path class="cls-11" d="M336.65,400l-.63,7.71-2.15-2,.14-1.37s.52-3.35.7-5a3.78,3.78,0,0,0,.33.63Z" transform="translate(-170 -311.58)"/><path class="cls-15" d="M342,375.69s-.59-.87-1.41.82a17.06,17.06,0,0,1-2.85,1.37c-.73.13-3.33,1.05-3.33,1.05a2.33,2.33,0,0,1-1.35.43c-.82,0-1.49,1.79-1.39,2.76s-.06,1.69-.81,1.73-.34,1.61-.34,1.61l5,5.75s.32,5.3.16,5.46a4.64,4.64,0,0,0-.6,1.77c.14.05-.76,5.91-.76,5.91l-1.21,11.37a2.88,2.88,0,0,0,2.46,2.56c2.47.66,8.52.22,8.91-1.5l1.25-1.63s2.15,4.17,5.42,3.75a15.75,15.75,0,0,0,5.36-1.61l-.36-13.63-.23-9.82,5.11-8.4s-1.37-2.62-1.25-3.81.36-2.08-2.56-2.5a11,11,0,0,1-3.91-1.37,11.29,11.29,0,0,0-2.8-1.4s-.82-1.53-1.39-1a20.08,20.08,0,0,1,.53,2.48,8,8,0,0,0,.18,1.92c.08.15,1.28,7.16.06,9.66,0,0-1.78,6.74-3,8s-4-7.58-4-7.58-1.47-7.9-1.23-9S342,375.69,342,375.69Z" transform="translate(-170 -311.58)"/><path class="cls-15" d="M346.28,401.71a.87.87,0,1,0-.87-.87A.87.87,0,0,0,346.28,401.71Z" transform="translate(-170 -311.58)"/><path class="cls-15" d="M346.28,405.83a.88.88,0,1,0-.87-.87A.87.87,0,0,0,346.28,405.83Z" transform="translate(-170 -311.58)"/><path class="cls-11" d="M346.28,401.71a.87.87,0,1,0-.87-.87A.87.87,0,0,0,346.28,401.71Z" transform="translate(-170 -311.58)"/><path class="cls-11" d="M346.28,405.83a.88.88,0,1,0-.87-.87A.87.87,0,0,0,346.28,405.83Z" transform="translate(-170 -311.58)"/><path class="cls-17" d="M354.13,457a23.21,23.21,0,0,1,3.94.56C358.43,457.84,354.13,457,354.13,457Z" transform="translate(-170 -311.58)"/><path class="cls-17" d="M332.78,454.18s.76,1,.44,1.39S332.78,454.18,332.78,454.18Z" transform="translate(-170 -311.58)"/><path class="cls-17" d="M333.7,457.61s1.39-.91,1.94-.3S333.7,457.61,333.7,457.61Z" transform="translate(-170 -311.58)"/><path class="cls-11" d="M351,369a5.14,5.14,0,0,1-.17,1.41.64.64,0,0,1-.29-.25.67.67,0,0,1-.08-.37c0-.23.17-.43.14-.66s-.47-.49-.69-.76a1.79,1.79,0,0,1-.19-1.24c0-.43-.08-.95-.49-1.1-.12,0-.25,0-.36-.09-.32-.14-.42-.53-.63-.8a1.64,1.64,0,0,0-1.9-.27,8.14,8.14,0,0,1-.86.35.87.87,0,0,1-.45.06,1.07,1.07,0,0,1-.44-.12c-.13-.08-.23-.19-.36-.27a1.22,1.22,0,0,0-1.36.33,4.87,4.87,0,0,1-1.15,1c-.21.1-.47.16-.57.36a.74.74,0,0,0-.06.36,10.85,10.85,0,0,1-.06,2.21c-.1.47-.43,1-.91.94l-.17,0a5.75,5.75,0,0,1,.05-2.3,5.58,5.58,0,0,1,1-2.09,5.74,5.74,0,0,1,1.74-1.51,5.6,5.6,0,0,1,2.19-.68,5.56,5.56,0,0,1,5.62,3.3A5.61,5.61,0,0,1,351,369Z" transform="translate(-170 -311.58)"/><path class="cls-15" d="M339.69,369.7c.15,0,.28.11.43.13.47.05.8-.47.9-.94a11,11,0,0,0,.07-2.22.7.7,0,0,1,.05-.35c.11-.21.37-.27.58-.36a5,5,0,0,0,1.14-1,1.21,1.21,0,0,1,1.36-.34c.13.08.23.19.36.27a1.12,1.12,0,0,0,.44.13,1.22,1.22,0,0,0,.46-.06,9,9,0,0,0,.85-.36,1.64,1.64,0,0,1,1.9.27c.21.28.31.67.63.8.11.05.24.05.36.1.41.15.51.67.49,1.1a1.86,1.86,0,0,0,.19,1.24c.22.27.64.41.69.76s-.12.43-.14.66a.5.5,0,0,0,0,.24.94.94,0,0,0,.12.22,1,1,0,0,0,.2.15.71.71,0,0,0,.24.06c.5,0,.8-.55,1.27-.73a1.45,1.45,0,0,0,.57-.24A.66.66,0,0,0,353,369a.62.62,0,0,0,0-.27c-.09-.73-.67-1.36-.61-2.1s.71-1.31.57-2a1.58,1.58,0,0,0-.38-.68,2.08,2.08,0,0,0-.78-.66A7,7,0,0,1,351,363c-.72-.39-.72-1.42-1.14-2.12a1.89,1.89,0,0,0-.75-.68,2,2,0,0,0-1-.19c-.53.06-1,.34-1.55.44a4,4,0,0,1-2.14-.38,5.72,5.72,0,0,0-2.12-.57,1.81,1.81,0,0,0-1.76,1.07c-.12.38-.06.79-.15,1.17a2.57,2.57,0,0,1-1.36,1.5c-.42.23-.92.5-1,1a2,2,0,0,0,.24.87,2.21,2.21,0,0,1,0,1.52c-.13.36-.37.67-.51,1a2,2,0,0,0-.14.77,1.93,1.93,0,0,0,.19.75,1.43,1.43,0,0,0,.36.45,1.67,1.67,0,0,0,.51.27C339.06,370,339.29,369.61,339.69,369.7Z" transform="translate(-170 -311.58)"/><g class="cls-18"><path class="cls-11" d="M341,368.48c-.1.46-.43,1-.91.93-.14,0-.27-.09-.42-.12-.4-.09-.63.28-1,.19a1.67,1.67,0,0,1-.51-.27,1.33,1.33,0,0,1-.36-.45,1.65,1.65,0,0,1-.18-.62,1.83,1.83,0,0,0,.18,1,1.43,1.43,0,0,0,.36.45,1.67,1.67,0,0,0,.51.27c.38.08.61-.29,1-.19l.42.12c.48.06.81-.47.91-.94a5.23,5.23,0,0,0,.09-1.25A4.58,4.58,0,0,1,341,368.48Z" transform="translate(-170 -311.58)"/><path class="cls-11" d="M338.41,365.61a2.21,2.21,0,0,0-.13-.92,6.08,6.08,0,0,1-.21-.6.3.3,0,0,0,0,.1,1.94,1.94,0,0,0,.23.86A2.17,2.17,0,0,1,338.41,365.61Z" transform="translate(-170 -311.58)"/><path class="cls-11" d="M353,364.61c-.09.54-.53,1.05-.57,1.61a1.5,1.5,0,0,0,0,.3C352.47,365.85,353.06,365.27,353,364.61Z" transform="translate(-170 -311.58)"/><path class="cls-11" d="M353,368.62a.43.43,0,0,1-.11.21c-.14.16-.38.17-.57.24-.46.18-.76.74-1.26.73a.69.69,0,0,1-.36-.13.66.66,0,0,1-.21-.31l0,.13a1,1,0,0,0,0,.24.71.71,0,0,0,.13.22.62.62,0,0,0,.2.15.84.84,0,0,0,.24.06c.49,0,.8-.56,1.26-.73.19-.08.42-.09.57-.24A.55.55,0,0,0,353,369a.62.62,0,0,0,0-.27S353,368.64,353,368.62Z" transform="translate(-170 -311.58)"/><path class="cls-11" d="M350.59,368.46c0-.34-.46-.48-.68-.76a1,1,0,0,1-.21-.62,1.38,1.38,0,0,0,.21,1c.22.27.55.38.66.65A.69.69,0,0,0,350.59,368.46Z" transform="translate(-170 -311.58)"/><path class="cls-11" d="M349.71,366.47c0-.43-.09-1-.49-1.1-.12,0-.25-.05-.36-.09-.32-.14-.42-.53-.63-.8a1.64,1.64,0,0,0-1.9-.27c-.29.11-.56.27-.86.36a1.14,1.14,0,0,1-.45.06,1.25,1.25,0,0,1-.44-.13c-.13-.08-.23-.19-.36-.27a1.22,1.22,0,0,0-1.36.33,4.87,4.87,0,0,1-1.15,1c-.21.1-.47.16-.58.36a.74.74,0,0,0-.06.36v.22a.43.43,0,0,1,.06-.22c.11-.21.37-.26.58-.36a4.79,4.79,0,0,0,1.14-1,1.22,1.22,0,0,1,1.37-.33c.13.07.23.19.35.26a1,1,0,0,0,.44.13,1.19,1.19,0,0,0,.46-.06,8,8,0,0,0,.85-.35,1.65,1.65,0,0,1,1.91.27c.21.27.31.66.62.79.12.05.25.06.37.1a.92.92,0,0,1,.48.85Z" transform="translate(-170 -311.58)"/></g><g class="cls-18"><path class="cls-11" d="M340.34,368.46a1.42,1.42,0,0,1,.32-.86,1.45,1.45,0,0,1,.78-.5,4.47,4.47,0,0,1,2.56.12c1.81.59-.23,2.74-.23,2.74s-1.35,1.33-2.61.4a2,2,0,0,1-.74-1.14A2.77,2.77,0,0,1,340.34,368.46Z" transform="translate(-170 -311.58)"/><path class="cls-11" d="M350.27,368.46a1.5,1.5,0,0,0-.33-.86,1.45,1.45,0,0,0-.78-.5,4.47,4.47,0,0,0-2.56.12c-1.81.59.23,2.74.23,2.74s1.35,1.33,2.61.4a1.91,1.91,0,0,0,.74-1.14A3.22,3.22,0,0,0,350.27,368.46Z" transform="translate(-170 -311.58)"/><path class="cls-11" d="M343.66,367v.09H347V367Z" transform="translate(-170 -311.58)"/><path class="cls-11" d="M344.71,368h.11v-.3a.86.86,0,0,1,.89,0V368h.19v-.18h-.09s0-.36-.59-.3c0,0-.49-.05-.48.26h-.12Z" transform="translate(-170 -311.58)"/></g><path class="cls-19" d="M340.34,368.34a1.45,1.45,0,0,1,.32-.87,1.43,1.43,0,0,1,.78-.49,4.55,4.55,0,0,1,2.56.11c1.81.6-.23,2.75-.23,2.75s-1.35,1.33-2.61.4a2,2,0,0,1-.74-1.14A2.77,2.77,0,0,1,340.34,368.34Z" transform="translate(-170 -311.58)"/><path class="cls-19" d="M350.27,368.34a1.53,1.53,0,0,0-.33-.87,1.43,1.43,0,0,0-.78-.49,4.56,4.56,0,0,0-2.56.11c-1.81.6.23,2.75.23,2.75s1.35,1.33,2.61.4a1.91,1.91,0,0,0,.74-1.14A3.22,3.22,0,0,0,350.27,368.34Z" transform="translate(-170 -311.58)"/><path class="cls-12" d="M343.66,366.92V367H347v-.11Z" transform="translate(-170 -311.58)"/><path class="cls-12" d="M344.71,367.87h.11v-.3a.86.86,0,0,1,.89,0v.27h.19v-.18h-.09s0-.36-.59-.3c0,0-.49-.05-.48.26h-.12Z" transform="translate(-170 -311.58)"/><path class="cls-20" d="M193.83,398.57h-1.08V422.9h1.08Z" transform="translate(-170 -311.58)"/><path class="cls-15" d="M200.62,422.83l-.07,1.1-.09,1.54,0,.65-.1,1.55,0,.64-.09,1.55-1.09,17.59a3,3,0,0,1-3,2.8h-5.66a3,3,0,0,1-3-2.8l-1.09-17.59-.1-1.55,0-.64-.09-1.56,0-.64-.1-1.55-.07-1.09a1.64,1.64,0,0,1,.09-.62,1.87,1.87,0,0,1,.33-.54,1.82,1.82,0,0,1,.51-.36,1.67,1.67,0,0,1,.62-.12h11.58a1.5,1.5,0,0,1,.62.13,1.4,1.4,0,0,1,.51.36,1.69,1.69,0,0,1,.33.53A1.46,1.46,0,0,1,200.62,422.83Z" transform="translate(-170 -311.58)"/><path class="cls-21" d="M200.55,423.93l-.09,1.54H186.12l-.1-1.54Z" transform="translate(-170 -311.58)"/><path class="cls-21" d="M200.42,426.12l-.1,1.55H186.25l-.09-1.55Z" transform="translate(-170 -311.58)"/><path class="cls-21" d="M200.28,428.31l-.09,1.55h-13.8l-.1-1.55Z" transform="translate(-170 -311.58)"/><path class="cls-22" d="M184.37,407.69a28,28,0,0,1,8.92,11.68,25.52,25.52,0,0,1-22.81-16.49A28.1,28.1,0,0,1,184.37,407.69Z" transform="translate(-170 -311.58)"/><path class="cls-23" d="M170.49,402.88s7.87,4.37,10.4,8,12.4,8.5,12.4,8.5" transform="translate(-170 -311.58)"/><path class="cls-22" d="M188.43,398.53a15.23,15.23,0,0,1,4.86,6.35,13.87,13.87,0,0,1-12.41-9A15.1,15.1,0,0,1,188.43,398.53Z" transform="translate(-170 -311.58)"/><path class="cls-23" d="M180.88,395.9s4.28,2.37,5.66,4.34,6.75,4.63,6.75,4.63" transform="translate(-170 -311.58)"/><path class="cls-22" d="M198.27,404.67a21.1,21.1,0,0,0-4.77,10A19.17,19.17,0,0,0,207.75,399,21.09,21.09,0,0,0,198.27,404.67Z" transform="translate(-170 -311.58)"/><path class="cls-23" d="M207.75,399s-5.12,4.43-6.43,7.49-7.82,8.18-7.82,8.18" transform="translate(-170 -311.58)"/></g></svg>