<svg id="레이어_1" data-name="레이어 1" xmlns="http://www.w3.org/2000/svg" xmlns:xlink="http://www.w3.org/1999/xlink" viewBox="0 0 339 358.84"><defs><style>.cls-1{fill:none;}.cls-2{clip-path:url(#clip-path);}.cls-3{fill:#529ca1;}.cls-4{fill:#e1817b;}.cls-5{fill:#3e3c54;}.cls-6{fill:#fff;}.cls-7{fill:#e6e6e5;}.cls-8{fill:#2e2d40;}.cls-9{fill:#f5b3b4;}.cls-10{fill:#5669b1;}.cls-11{fill:#555ea9;}.cls-12{fill:#040000;opacity:0.2;isolation:isolate;}</style><clipPath id="clip-path" transform="translate(-128 -241.58)"><rect class="cls-1" x="128" y="241.58" width="339" height="358.84"/></clipPath></defs><title>무제-1</title><g class="cls-2"><path class="cls-3" d="M174.56,522.72l-4-15.92a207.58,207.58,0,0,0-21.94-7.87l-.51,7.4L146,498.18c-9.24-2.64-15.53-3.81-15.53-3.81s8.5,32.31,26.32,57L177.55,555l-16.13,2.33a84.13,84.13,0,0,0,7.22,7.64c25.92,24.07,54.8,35.11,64.49,24.66s-3.46-38.42-29.39-62.48c-8-7.46-18.13-13.45-28.24-18.16Z" transform="translate(-128 -241.58)"/><path class="cls-4" d="M213,505.43l4.78-15.72A205.85,205.85,0,0,0,203,471.63l-4.26,6.07,2.45-8.05c-6.55-7-11.34-11.28-11.34-11.28s-9.42,32.05-6.93,62.4l15.89,13.86-15-6.35A84,84,0,0,0,186,538.56c9.76,34,28.77,58.37,42.47,54.44s16.89-34.68,7.13-68.67c-3-10.54-8.57-20.89-14.79-30.14Z" transform="translate(-128 -241.58)"/><path class="cls-5" d="M297.5,600.42c93.61,0,169.5-3.88,169.5-8.67s-75.89-8.67-169.5-8.67S128,587,128,591.75,203.89,600.42,297.5,600.42Z" transform="translate(-128 -241.58)"/><path class="cls-5" d="M396.53,324.86H394.6V272.11a30.54,30.54,0,0,0-30.53-30.53H252.32a30.52,30.52,0,0,0-30.53,30.53V561.5A30.51,30.51,0,0,0,252.32,592H364.07A30.51,30.51,0,0,0,394.6,561.5V362.41h1.93Z" transform="translate(-128 -241.58)"/><path class="cls-6" d="M388.11,272.33v289a22.81,22.81,0,0,1-22.81,22.8H253a22.81,22.81,0,0,1-22.8-22.8v-289A22.81,22.81,0,0,1,253,249.52h13.62a10.85,10.85,0,0,0,10,14.93h64a10.85,10.85,0,0,0,10-14.93H365.3a22.81,22.81,0,0,1,22.81,22.81Z" transform="translate(-128 -241.58)"/><path class="cls-7" d="M388.11,499.2v62.09a22.81,22.81,0,0,1-22.81,22.8H253a22.81,22.81,0,0,1-22.8-22.8v-56a107.38,107.38,0,0,1,157.9-6.06Z" transform="translate(-128 -241.58)"/><path class="cls-7" d="M283.14,487.73H278.6l1.51-88.66h1.52Z" transform="translate(-128 -241.58)"/><path class="cls-7" d="M286.92,343.26l7.33-11.32a172.66,172.66,0,0,0-7.52-17.6L282,318.17l3.75-5.8c-3.57-7-6.38-11.47-6.38-11.47s-14.7,23.16-19.61,47.67l9.41,14.53-10.41-8.41a68.91,68.91,0,0,0-.57,8.61c0,29,9.48,52.57,21.18,52.57s21.17-23.53,21.17-52.57c0-9-2-18.41-4.84-27.12Z" transform="translate(-128 -241.58)"/><path class="cls-7" d="M256.8,494h-2.2l.73-43h.74Z" transform="translate(-128 -241.58)"/><path class="cls-7" d="M258.63,423.92l3.56-5.49a82.22,82.22,0,0,0-3.65-8.53l-2.3,1.85,1.82-2.81c-1.73-3.41-3.09-5.56-3.09-5.56s-7.13,11.23-9.51,23.12l4.56,7L245,429.47a34.22,34.22,0,0,0-.28,4.17c0,14.08,4.6,25.5,10.28,25.5s10.27-11.42,10.27-25.5a43.88,43.88,0,0,0-2.35-13.15Z" transform="translate(-128 -241.58)"/><path class="cls-7" d="M314.1,494h-2.2l.74-43h.73Z" transform="translate(-128 -241.58)"/><path class="cls-7" d="M315.94,423.92l3.55-5.49a80.11,80.11,0,0,0-3.65-8.53l-2.29,1.85,1.82-2.81c-1.74-3.41-3.1-5.56-3.1-5.56s-7.13,11.23-9.51,23.12l4.56,7-5.05-4.07a32.32,32.32,0,0,0-.27,4.17c0,14.08,4.6,25.5,10.27,25.5s10.27-11.42,10.27-25.5a43.88,43.88,0,0,0-2.35-13.15Z" transform="translate(-128 -241.58)"/><path class="cls-7" d="M255.12,351.47a20.23,20.23,0,1,0-20.22-20.23A20.23,20.23,0,0,0,255.12,351.47Z" transform="translate(-128 -241.58)"/><path class="cls-8" d="M328.26,354.34l36.91.92,5-44H328.26Z" transform="translate(-128 -241.58)"/><path class="cls-9" d="M319.06,319.86l-10.18-39s2.81-18.74,9.61-18.43-1.76,18.32-1.76,18.32l11.53,33.72Z" transform="translate(-128 -241.58)"/><path class="cls-8" d="M339,417.68l1.59,15.95s-50.22,34.28-50.22,48.63-1.6,59.8-1.6,59.8l18.34.8,1.59-21.53s4-23.92,1.6-32.69l26.31-19.93s-8,9.57-6.38,26.31-2.39,49.43-2.39,49.43l19.13,1.6s2.39-17.55,3.19-19.14,4.79-30.3.8-38.27l32.69-38.27s11.16-14.35,0-28.7l-6.38-3.19Z" transform="translate(-128 -241.58)"/><path class="cls-8" d="M289.59,538.87,288,549.23,277.63,574s-17.54,8.77-4.79,10.37,17.55-1.6,19.94-5.59S300,568.37,300,568.37l-.79,16.74h4l6.54-22.87a14.43,14.43,0,0,0-2.46-12.89l-.09-.12c-3.19-4-1.6-9.56-1.6-9.56Z" transform="translate(-128 -241.58)"/><path class="cls-8" d="M329.45,538.87l-1.59,10.36L317.49,574s-17.54,8.77-4.78,10.37,17.54-1.6,19.93-5.59,7.18-10.36,7.18-10.36l-.8,16.74h4l6.53-22.87a14.47,14.47,0,0,0-2.45-12.89l-.1-.12c-3.19-4-1.59-9.56-1.59-9.56Z" transform="translate(-128 -241.58)"/><path class="cls-9" d="M348.59,335.56a15.95,15.95,0,1,0-15.95-15.95A15.95,15.95,0,0,0,348.59,335.56Z" transform="translate(-128 -241.58)"/><path class="cls-9" d="M347.79,333.17,355,349.91l14.35-11.16s-8.77-12-8.77-13.55Z" transform="translate(-128 -241.58)"/><path class="cls-10" d="M349.38,342.74l3.41,2.09s11-5.83,13.76-9.94c0,0,9.94-3.32,13.93,4.66s-2.39,63-2.39,63,4,5.58,3.19,8,2.39,6.37,2.39,6.37v4.79s-45.45.8-45.45-3.19V405.72l-4.78-1.59s-4.78,10.36-6.38,9.57-9.57-7.18-9.57-7.18,12.76-42.26,19.94-49.43l8.77-15.15Z" transform="translate(-128 -241.58)"/><path class="cls-10" d="M347.79,343.53s-1.59-3.19-4-4S329.45,322,329.45,322l1.6-8.77-15.95-2.4s.8,8.77,4,14.36,20.73,34.28,20.73,34.28l8.77-16Z" transform="translate(-128 -241.58)"/><path class="cls-9" d="M360.15,406.92l-9.57,28.7s-19.93,22.32-8.77,22.32S358.55,438,358.55,438l13.56-28.7Z" transform="translate(-128 -241.58)"/><path class="cls-8" d="M329.48,319.85c12.77-5.12,25.36-6.21,37.62,0V309.53a6.66,6.66,0,0,0-.51-2.57,6.76,6.76,0,0,0-3.64-3.64,6.66,6.66,0,0,0-2.57-.51H334.79a5.49,5.49,0,0,0-2,.4,5.37,5.37,0,0,0-2.87,2.88,5.21,5.21,0,0,0-.4,2Z" transform="translate(-128 -241.58)"/><path class="cls-11" d="M370.11,341.94s7.28-6.16,11.22.9,1.54,37.37.74,41.36-6.37,28.7-6.37,28.7l-19.14-4s-1.59-11.16,3.19-10.36Z" transform="translate(-128 -241.58)"/><path class="cls-8" d="M378.05,335.09c-3.6-2-5.27-6.42-5.39-10.52s.87-8.17.95-12.27a9.65,9.65,0,0,0-.21-2.51,9.89,9.89,0,0,0-1.38-2.85c-4.68-7.17-12.82-12.21-21.39-12.29a9.56,9.56,0,0,0-3.62.66c-.88.36-1.17.31-1.34,1.4a9.05,9.05,0,0,0-6.22.2,21.07,21.07,0,0,0-5.43,3.24,23.13,23.13,0,0,0-2.75,2.38c-4.53,4.69-5.57,11.92-4.26,18.31.43,2.08-1.62,4.08-3.32,5.36s-3.64,2.44-4.48,4.39-.36,4-.52,6.06a10.36,10.36,0,0,1-6.6,8.7,3.12,3.12,0,0,0,1.38,1,3.25,3.25,0,0,0,1.69.12,7.74,7.74,0,0,0,3.21-1.52,19.07,19.07,0,0,0,7.1-10.55,30.66,30.66,0,0,1,.29,6.91,19.47,19.47,0,0,1-1.4,7.55,11.1,11.1,0,0,1-5.09,5.61c2.22,1.09,4.67.3,6.55-1.31a13.7,13.7,0,0,0,3.77-6.28A31.3,31.3,0,0,0,331.1,335a17,17,0,0,1,2.13,11.57,17.71,17.71,0,0,1-6,10.41A34.52,34.52,0,0,0,343,353a9.09,9.09,0,0,0,3.24-2.49c1.56-2.18,1.19-5.14.75-7.78-.35-2.09,2.26-5.11.77-6.61a2.51,2.51,0,0,0-1.66-.71,14.7,14.7,0,0,1-11.2-6.6,17,17,0,0,1-2.83-8.71,15.87,15.87,0,0,1,1.45-6.61,15.92,15.92,0,0,1,10-8.63,15.9,15.9,0,0,1,13.08,2,15.75,15.75,0,0,1,4.74,4.84,15.82,15.82,0,0,1,1.71,13.11,32,32,0,0,0-1.16,5.38,41.76,41.76,0,0,1-1.29,6.25c-1.13,3.94-3,8-6.58,10a10.29,10.29,0,0,0,3.91.83c4.45.49,9.13.38,13.15-1.58S378.34,339.55,378.05,335.09Z" transform="translate(-128 -241.58)"/><path class="cls-12" d="M364.13,363.07,360,397.32l.18-32.66Z" transform="translate(-128 -241.58)"/><path class="cls-12" d="M377.81,403.52l-1.72,10.57,4,1.6Z" transform="translate(-128 -241.58)"/></g></svg>